<svg width="21" height="21" viewBox="0 0 21 21" fill="none" xmlns="http://www.w3.org/2000/svg">
<g id="crypto">
<g id="Icon">
<path d="M10.5 13.8679L7.58329 12.184V8.8162L10.5 7.13231L13.4166 8.8162V12.184L10.5 13.8679Z" fill="black"/>
<path fill-rule="evenodd" clip-rule="evenodd" d="M2.16663 10.5001C2.16663 5.89771 5.89759 2.16675 10.5 2.16675C15.1023 2.16675 18.8333 5.89771 18.8333 10.5001C18.8333 15.1025 15.1023 18.8334 10.5 18.8334C5.89759 18.8334 2.16663 15.1025 2.16663 10.5001ZM14.3541 7.91408L10.8125 5.86935C10.6191 5.75771 10.3808 5.75771 10.1875 5.86935L6.6458 7.91408C6.45242 8.02573 6.33329 8.23206 6.33329 8.45535V12.5448C6.33329 12.7681 6.45242 12.9744 6.6458 13.0861L10.1875 15.1308C10.3808 15.2424 10.6191 15.2424 10.8125 15.1308L14.3541 13.0861C14.5475 12.9744 14.6666 12.7681 14.6666 12.5448V8.45535C14.6666 8.23206 14.5475 8.02573 14.3541 7.91408Z" fill="black"/>
</g>
</g>
</svg>
