<svg width="21" height="21" viewBox="0 0 21 21" fill="none" xmlns="http://www.w3.org/2000/svg">
<g id="chevron-down-small">
<path id="Icon" fill-rule="evenodd" clip-rule="evenodd" d="M7.14645 6.64645C7.34171 6.45118 7.65829 6.45118 7.85355 6.64645L11 9.79289L14.1464 6.64645C14.3417 6.45118 14.6583 6.45118 14.8536 6.64645C15.0488 6.84171 15.0488 7.15829 14.8536 7.35355L11.7071 10.5L14.8536 13.6464C15.0488 13.8417 15.0488 14.1583 14.8536 14.3536C14.6583 14.5488 14.3417 14.5488 14.1464 14.3536L11 11.2071L7.85355 14.3536C7.65829 14.5488 7.34171 14.5488 7.14645 14.3536C6.95118 14.1583 6.95118 13.8417 7.14645 13.6464L10.2929 10.5L7.14645 7.35355C6.95118 7.15829 6.95118 6.84171 7.14645 6.64645Z" fill="black"/>
</g>
</svg>
