<svg width="16" height="16" viewBox="0 0 16 16" fill="none" xmlns="http://www.w3.org/2000/svg">
<g id="trash-can-2, delete, remove, garbage, waste">
<path id="Icon" fill-rule="evenodd" clip-rule="evenodd" d="M5.55001 3.33325C5.78164 2.19213 6.79052 1.33325 8 1.33325C9.20948 1.33325 10.2184 2.19213 10.45 3.33325L14 3.33325V4.33325H12.6667L12.6667 14.6666L3.33333 14.6666L3.33333 4.33325H2V3.33325L5.55001 3.33325ZM6.58535 3.33325C6.79127 2.75066 7.34689 2.33325 8 2.33325C8.65311 2.33325 9.20873 2.75066 9.41465 3.33325H6.58535ZM7.16667 6.66659L7.16667 11.3333H6.16667L6.16667 6.66659H7.16667ZM9.83333 6.66659L9.83333 11.3333H8.83333L8.83333 6.66659H9.83333Z" fill="black"/>
</g>
</svg>
