<svg width="20" height="20" viewBox="0 0 20 20" fill="none" xmlns="http://www.w3.org/2000/svg">
<g id="assignment_late">
<mask id="mask0_4362_316" style="mask-type:alpha" maskUnits="userSpaceOnUse" x="0" y="0" width="20" height="20">
<rect id="Bounding box" width="20" height="20" fill="#D9D9D9"/>
</mask>
<g mask="url(#mask0_4362_316)">
<path id="assignment_late_2" d="M10 14.1666C10.2361 14.1666 10.434 14.0867 10.5938 13.927C10.7535 13.7673 10.8333 13.5694 10.8333 13.3333C10.8333 13.0971 10.7535 12.8992 10.5938 12.7395C10.434 12.5798 10.2361 12.4999 10 12.4999C9.76389 12.4999 9.56597 12.5798 9.40625 12.7395C9.24653 12.8992 9.16667 13.0971 9.16667 13.3333C9.16667 13.5694 9.24653 13.7673 9.40625 13.927C9.56597 14.0867 9.76389 14.1666 10 14.1666ZM9.16667 10.8333H10.8333V5.83325H9.16667V10.8333ZM2.5 17.4999V2.49992H7.66667C7.84722 1.99992 8.14931 1.59714 8.57292 1.29159C8.99653 0.98603 9.47222 0.833252 10 0.833252C10.5278 0.833252 11.0035 0.98603 11.4271 1.29159C11.8507 1.59714 12.1528 1.99992 12.3333 2.49992H17.5V17.4999H2.5ZM4.16667 15.8333H15.8333V4.16659H4.16667V15.8333ZM10 3.54159C10.1806 3.54159 10.3299 3.48256 10.4479 3.3645C10.566 3.24645 10.625 3.09714 10.625 2.91659C10.625 2.73603 10.566 2.58672 10.4479 2.46867C10.3299 2.35061 10.1806 2.29159 10 2.29159C9.81944 2.29159 9.67014 2.35061 9.55208 2.46867C9.43403 2.58672 9.375 2.73603 9.375 2.91659C9.375 3.09714 9.43403 3.24645 9.55208 3.3645C9.67014 3.48256 9.81944 3.54159 10 3.54159Z" fill="#DC502D"/>
</g>
</g>
</svg>
