<svg width="20" height="20" viewBox="0 0 20 20" fill="none" xmlns="http://www.w3.org/2000/svg">
<g id="settings-slider-three">
<g id="Icon">
<path fill-rule="evenodd" clip-rule="evenodd" d="M16.8783 15.2489L11.6679 15.2489L16.8783 15.2489Z" fill="black"/>
<path fill-rule="evenodd" clip-rule="evenodd" d="M8.54166 15.2489L3.12256 15.2489L8.54166 15.2489Z" fill="black"/>
<path fill-rule="evenodd" clip-rule="evenodd" d="M16.6699 10.0001L10.6254 10.0001L16.6699 10.0001Z" fill="black"/>
<path fill-rule="evenodd" clip-rule="evenodd" d="M7.49929 10.0001L3.33089 10.0001L7.49929 10.0001Z" fill="black"/>
<path fill-rule="evenodd" clip-rule="evenodd" d="M16.878 4.75123L13.335 4.75123L16.878 4.75123Z" fill="black"/>
<path fill-rule="evenodd" clip-rule="evenodd" d="M10.209 4.75125L3.12256 4.75125L10.209 4.75125Z" fill="black"/>
<path fill-rule="evenodd" clip-rule="evenodd" d="M11.4596 16.8782L11.4596 13.5417L11.4596 16.8782Z" fill="black"/>
<path fill-rule="evenodd" clip-rule="evenodd" d="M7.70752 11.6667L7.70752 8.33341L7.70752 11.6667Z" fill="black"/>
<path fill-rule="evenodd" clip-rule="evenodd" d="M13.1266 6.4584L13.1266 3.12507L13.1266 6.4584Z" fill="black"/>
<path d="M16.8783 15.2489L11.6679 15.2489M8.54166 15.2489L3.12256 15.2489M16.6699 10.0001L10.6254 10.0001M7.49929 10.0001L3.33089 10.0001M16.878 4.75123L13.335 4.75123M10.209 4.75125L3.12256 4.75125M11.4596 16.8782L11.4596 13.5417M7.70752 11.6667L7.70752 8.33341M13.1266 6.4584L13.1266 3.12507" stroke="black" stroke-width="1.5" stroke-linecap="square" stroke-linejoin="round"/>
</g>
</g>
</svg>
