<svg width="33" height="33" viewBox="0 0 33 33" fill="none" xmlns="http://www.w3.org/2000/svg">
<g id="folder-upload">
<path id="Icon" d="M3.16663 5.5C3.16663 4.94772 3.61434 4.5 4.16663 4.5H13.8333C14.1676 4.5 14.4799 4.6671 14.6653 4.9453L17.0351 8.5H28.8333C29.3856 8.5 29.8333 8.94771 29.8333 9.5V26.1667C29.8333 26.719 29.3856 27.1667 28.8333 27.1667H17.5V20.2475L19.1262 21.8738C19.5167 22.2643 20.1499 22.2643 20.5404 21.8738C20.9309 21.4832 20.9309 20.8501 20.5404 20.4596L17.2071 17.1262C16.8165 16.7357 16.1834 16.7357 15.7929 17.1262L12.4595 20.4596C12.069 20.8501 12.069 21.4832 12.4595 21.8738C12.85 22.2643 13.4832 22.2643 13.8737 21.8738L15.5 20.2475V27.1667H4.16663C3.61434 27.1667 3.16663 26.719 3.16663 26.1667V5.5Z" fill="black"/>
</g>
</svg>
