<svg width="21" height="20" viewBox="0 0 21 20" fill="none" xmlns="http://www.w3.org/2000/svg">
<g id="Social icon" clip-path="url(#clip0_3690_2964)">
<path id="Icon" fill-rule="evenodd" clip-rule="evenodd" d="M10.3672 0C4.84419 0 0.367188 4.484 0.367188 10.017C0.367188 14.442 3.23219 18.197 7.20619 19.521C7.70619 19.613 7.88819 19.304 7.88819 19.038C7.88819 18.801 7.88019 18.17 7.87519 17.335C5.09319 17.94 4.50619 15.992 4.50619 15.992C4.05219 14.834 3.39619 14.526 3.39619 14.526C2.48819 13.906 3.46519 13.918 3.46519 13.918C4.46819 13.988 4.99619 14.95 4.99619 14.95C5.88819 16.48 7.33719 16.038 7.90619 15.782C7.99819 15.135 8.25619 14.694 8.54219 14.444C6.32219 14.191 3.98719 13.331 3.98719 9.493C3.98719 8.4 4.37719 7.505 5.01619 6.805C4.91319 6.552 4.57019 5.533 5.11419 4.155C5.11419 4.155 5.95419 3.885 7.86419 5.181C8.67995 4.95851 9.52163 4.84519 10.3672 4.844C11.2172 4.848 12.0722 4.959 12.8712 5.181C14.7802 3.885 15.6182 4.154 15.6182 4.154C16.1642 5.533 15.8202 6.552 15.7182 6.805C16.3582 7.505 16.7462 8.4 16.7462 9.493C16.7462 13.341 14.4072 14.188 12.1802 14.436C12.5392 14.745 12.8582 15.356 12.8582 16.291C12.8582 17.629 12.8462 18.71 12.8462 19.038C12.8462 19.306 13.0262 19.618 13.5342 19.52C15.5255 18.8521 17.2565 17.5753 18.4827 15.87C19.7088 14.1648 20.368 12.1173 20.3672 10.017C20.3672 4.484 15.8892 0 10.3672 0Z" fill="black"/>
</g>
<defs>
<clipPath id="clip0_3690_2964">
<rect width="20" height="20" fill="white" transform="translate(0.367188)"/>
</clipPath>
</defs>
</svg>
