<svg width="96" height="100" viewBox="0 0 96 100" fill="none" xmlns="http://www.w3.org/2000/svg">
<g id="Icon" clip-path="url(#clip0_3690_178)">
<path id="Vector" d="M47.2548 97.9894C43.6745 98.9488 40.13 99.4106 36.6214 99.3744C33.1994 99.24 30.0088 98.7056 27.0497 97.7713C24.1771 96.7388 21.722 95.3694 19.6845 93.6625C17.6283 91.8856 16.281 89.8056 15.6427 87.4238L4.04065 44.1243C3.4399 41.8822 3.54241 39.5269 4.34818 37.0581C5.24049 34.4911 6.68177 32.0774 8.67202 29.8169C10.6435 27.4864 13.1301 25.3934 16.1317 23.5378C19.1146 21.6121 22.449 20.1554 26.1346 19.1679L51.2502 12.4382C54.9359 11.4506 58.5518 11.0449 62.0979 11.2212C65.625 11.3274 68.825 11.8967 71.6981 12.9293C74.5518 13.8918 76.9537 15.2756 78.905 17.0808C80.9425 18.7876 82.2618 20.7621 82.8625 23.0041L94.4643 66.3038C95.1025 68.6856 94.9756 71.16 94.0831 73.7275C93.1725 76.2244 91.6781 78.6519 89.6018 81.0106C87.6112 83.2713 85.1156 85.3294 82.1137 87.185C79.1987 88.9419 75.9506 90.3006 72.3706 91.26L47.2548 97.9894Z" fill="#F5C32C"/>
<path id="Vector_2" fill-rule="evenodd" clip-rule="evenodd" d="M62.067 11.8441C58.5903 11.6712 55.0393 12.0686 51.4117 13.0406L26.2961 19.7703C22.6684 20.7423 19.3945 22.1737 16.47 24.0617L16.4597 24.0682C13.5053 25.8946 11.0713 27.9464 9.14816 30.2197L9.14016 30.2291C7.19891 32.4338 5.80242 34.7766 4.93922 37.2574C4.16803 39.6232 4.07767 41.8529 4.64306 43.9629L16.2451 87.2626C16.8474 89.5101 18.1189 91.4838 20.0886 93.1876C22.0587 94.8369 24.4422 96.1701 27.2491 97.1807C30.1443 98.0932 33.2725 98.6182 36.6368 98.7513C40.0827 98.7857 43.5678 98.3319 47.0935 97.3876L72.2088 90.6576C75.7369 89.7126 78.9288 88.3763 81.7894 86.6526C84.7457 84.8244 87.1907 82.8051 89.1338 80.5988C91.1669 78.2894 92.6157 75.9282 93.4963 73.5176C94.35 71.0582 94.4644 68.7126 93.8619 66.4651L82.26 23.1656C81.6969 21.0647 80.4588 19.1957 78.5044 17.5588C78.4969 17.5522 78.4888 17.5454 78.4813 17.5385C76.6032 15.8005 74.28 14.4583 71.4988 13.5202L71.4869 13.5161C68.685 12.5089 65.5507 11.9491 62.0792 11.8446L62.067 11.8441ZM62.1228 10.5981C58.5092 10.4192 54.8305 10.8334 51.0888 11.8359L25.9733 18.5656C22.2317 19.5682 18.8387 21.0489 15.7987 23.0106C12.7541 24.8934 10.218 27.0251 8.19997 29.4096C6.16424 31.7227 4.68017 34.2041 3.75922 36.8534L3.75544 36.8647C2.91677 39.4342 2.80272 41.9134 3.43838 44.2857L15.0404 87.5851C15.7143 90.1001 17.1362 92.2844 19.2769 94.1344L19.2842 94.1407C21.3856 95.9007 23.9072 97.3044 26.8388 98.3582C26.8465 98.3613 26.8542 98.3638 26.862 98.3663C29.8792 99.3188 33.1252 99.8613 36.597 99.9976C36.603 99.9976 36.609 99.9982 36.615 99.9982C40.1833 100.035 43.7843 99.5651 47.4163 98.5919L72.5319 91.8626C76.1638 90.8894 79.4663 89.5088 82.4357 87.7188L82.4419 87.715C85.4869 85.8326 88.0325 83.7363 90.0694 81.4232C92.1888 79.0163 93.7269 76.5226 94.6694 73.9413L94.6725 73.9319C95.6013 71.2594 95.7407 68.6569 95.0669 66.1419L83.465 22.8427C82.8275 20.464 81.4319 18.3873 79.3175 16.6126C77.2969 14.7467 74.8213 13.3254 71.9032 12.3404C68.9632 11.2844 65.7013 10.7064 62.1228 10.5981Z" fill="black"/>
<path id="Vector_3" fill-rule="evenodd" clip-rule="evenodd" d="M33.7767 88.8168C37.2852 88.8531 40.8297 88.3912 44.4101 87.4318L69.5256 80.7024C73.1062 79.7431 76.3537 78.3843 79.2687 76.6274C82.2706 74.7718 84.7668 72.7137 86.7568 70.4531C88.8337 68.0943 90.3274 65.6668 91.2387 63.1693C92.1312 60.6026 92.2581 58.128 91.6199 55.7459L80.0174 12.4464C79.4168 10.2044 78.0974 8.23001 76.0599 6.52313C74.1093 4.71795 71.7068 3.33412 68.8531 2.37164C65.9806 1.3391 62.7806 0.769737 59.2532 0.663568C55.7071 0.487327 52.0912 0.892999 48.4054 1.88058L23.2899 8.61026C19.6042 9.59788 16.2699 11.0545 13.287 12.9801C10.2854 14.8358 7.79881 16.9288 5.8273 19.2593C3.83705 21.5198 2.39576 23.9335 1.50345 26.5005C0.697677 28.9693 0.595174 31.3246 1.19593 33.5667L12.7979 76.8662C13.4362 79.2481 14.7836 81.3281 16.8398 83.1049C18.8773 84.8118 21.3324 86.1812 24.2049 87.2137C27.1641 88.1481 30.3547 88.6824 33.7767 88.8168Z" fill="white"/>
<path id="Vector_4" fill-rule="evenodd" clip-rule="evenodd" d="M59.2223 1.28644C55.7456 1.11366 52.1946 1.51094 48.5669 2.48298L23.4514 9.21269C19.8236 10.1847 16.5497 11.6162 13.6253 13.5041L13.615 13.5106C10.6606 15.337 8.22656 17.3888 6.30346 19.6621L6.2954 19.6715C4.35421 21.8762 2.95771 24.2189 2.09449 26.6997C1.3233 29.0656 1.23294 31.2953 1.79834 33.4053L13.4004 76.705C14.0027 78.9525 15.2742 80.9262 17.2439 82.63C19.214 84.2794 21.5974 85.6125 24.4044 86.6231C27.2996 87.5356 30.4278 88.0606 33.7921 88.1931C37.238 88.2281 40.7231 87.7744 44.2488 86.8294L69.3644 80.1C72.8919 79.155 76.0837 77.8187 78.9437 76.095C81.9006 74.2669 84.3462 72.2475 86.2887 70.0413C88.3225 67.7319 89.7706 65.3712 90.6513 62.9606C91.5056 60.5005 91.62 58.1553 91.0175 55.9073L79.4156 12.6079C78.8525 10.5071 77.6137 8.63812 75.66 7.00119C75.6519 6.99462 75.6444 6.98781 75.6369 6.98088C73.7581 5.24288 71.4356 3.90072 68.6537 2.96259L68.6419 2.95853C65.84 1.95134 62.7062 1.39143 59.2345 1.28693L59.2223 1.28644ZM59.2781 0.0405004C55.6645 -0.138426 51.9858 0.27574 48.2441 1.2783L23.1286 8.008C19.387 9.01056 15.994 10.4913 12.954 12.453C9.90937 14.3358 7.37337 16.4674 5.35529 18.8519C3.31952 21.1651 1.83545 23.6464 0.9145 26.2959L0.910706 26.3071C0.0720433 28.8766 -0.0420074 31.3558 0.593652 33.7281L12.1957 77.0275C12.8696 79.5425 14.2914 81.7269 16.4322 83.5769L16.4394 83.5825C18.5409 85.3431 21.0625 86.7469 23.9941 87.8006C24.0017 87.8037 24.0095 87.8063 24.0173 87.8088C27.0345 88.7613 30.2805 89.3037 33.7523 89.44C33.7583 89.44 33.7643 89.4406 33.7703 89.4406C37.3386 89.4769 40.9396 89.0075 44.5716 88.0344L69.6869 81.3044C73.3187 80.3313 76.6219 78.9512 79.5912 77.1612L79.5969 77.1575C82.6419 75.275 85.1875 73.1787 87.225 70.865C89.3438 68.4588 90.8825 65.965 91.8244 63.3831L91.8275 63.3744C92.7569 60.702 92.8963 58.0996 92.2219 55.5845L80.62 12.2851C79.9825 9.90637 78.5869 7.82969 76.4725 6.05503C74.4525 4.18906 71.9762 2.76769 69.0581 1.78277C66.1181 0.726806 62.8562 0.148744 59.2781 0.0405004Z" fill="black"/>
<path id="Vector_5" d="M31.6967 35.1527C32.9311 39.7593 35.8545 42.4211 37.7029 41.9258C39.5512 41.4306 40.752 37.6637 39.5177 33.0571C38.2834 28.4505 35.36 25.7887 33.5116 26.284C31.6632 26.7792 30.4624 30.5462 31.6967 35.1527Z" fill="black"/>
<path id="Vector_6" d="M47.3389 30.9616C48.5732 35.5682 51.4965 38.23 53.3449 37.7347C55.1932 37.2394 56.3941 33.4726 55.1598 28.866C53.9254 24.2594 51.002 21.5976 49.1537 22.0928C47.3053 22.5881 46.1045 26.355 47.3389 30.9616Z" fill="black"/>
<path id="Vector_7" d="M62.3732 43.9914C64.5062 51.9516 59.6542 60.1915 51.5607 62.3601C43.467 64.5288 35.1453 59.8188 33.0123 51.8587L32.939 51.5848L31.9775 51.8424L32.0509 52.1163C34.3218 60.5917 43.186 65.6038 51.8106 63.2931C60.4352 60.9821 65.6056 52.2092 63.3344 43.7338L63.2612 43.46L62.2998 43.7176L62.3732 43.9914Z" fill="black"/>
<path id="Vector_8" d="M62.3732 43.9912C64.506 51.9514 59.6543 60.1912 51.5607 62.3599C43.4671 64.5288 35.1454 59.8186 33.0124 51.8584L32.939 51.5845L31.9775 51.8422L32.0509 52.116C34.3219 60.5914 43.1861 65.6038 51.8107 63.2925C60.4352 60.9819 65.6054 52.209 63.3348 43.7336L63.261 43.4597L62.2999 43.7173L62.3732 43.9912Z" fill="black"/>
<path id="Vector_9" fill-rule="evenodd" clip-rule="evenodd" d="M33.0862 51.3299L33.2133 51.8045C35.3157 59.6506 43.5211 64.2987 51.5071 62.159C59.493 60.0192 64.275 51.891 62.1726 44.0449L62.0455 43.5703L63.4087 43.2051L63.5356 43.6797C65.8375 52.2693 60.5967 61.1538 51.8646 63.4937C43.1326 65.8331 34.1519 60.7594 31.8503 52.1698L31.7231 51.6951L33.0862 51.3299ZM33.0126 51.8583C35.1455 59.8185 43.4673 64.5287 51.5608 62.3598C59.6545 60.1911 64.5062 51.9513 62.3734 43.9911L62.3 43.7173L63.2612 43.4596L63.335 43.7335C65.6056 52.2089 60.4354 60.9818 51.8108 63.2925C43.1863 65.6037 34.3221 60.5913 32.0511 52.116L31.9777 51.8421L32.9392 51.5845L33.0126 51.8583Z" fill="black"/>
</g>
<defs>
<clipPath id="clip0_3690_178">
<rect width="95.625" height="100" fill="white" transform="translate(0.1875)"/>
</clipPath>
</defs>
</svg>
