<svg width="20" height="20" viewBox="0 0 20 20" fill="none" xmlns="http://www.w3.org/2000/svg">
<g id="cached">
<mask id="mask0_4362_322" style="mask-type:alpha" maskUnits="userSpaceOnUse" x="0" y="0" width="20" height="20">
<rect id="Bounding box" width="20" height="20" fill="#D9D9D9"/>
</mask>
<g mask="url(#mask0_4362_322)">
<path id="cached_2" d="M10.0416 16.6666C8.18047 16.6666 6.59714 16.0208 5.29159 14.7291C3.98603 13.4374 3.33325 11.861 3.33325 9.99992V9.85409L1.99992 11.1874L0.833252 10.0208L4.16659 6.68742L7.49992 10.0208L6.33325 11.1874L4.99992 9.85409V9.99992C4.99992 11.3888 5.4895 12.5694 6.46867 13.5416C7.44784 14.5138 8.63881 14.9999 10.0416 14.9999C10.4027 14.9999 10.7569 14.9583 11.1041 14.8749C11.4513 14.7916 11.7916 14.6666 12.1249 14.4999L13.3749 15.7499C12.8471 16.0555 12.3055 16.2846 11.7499 16.4374C11.1944 16.5902 10.6249 16.6666 10.0416 16.6666ZM15.8333 13.3124L12.4999 9.97908L13.6666 8.81242L14.9999 10.1458V9.99992C14.9999 8.61103 14.5103 7.43047 13.5312 6.45825C12.552 5.48603 11.361 4.99992 9.95825 4.99992C9.59714 4.99992 9.24297 5.04159 8.89575 5.12492C8.54853 5.20825 8.20825 5.33325 7.87492 5.49992L6.62492 4.24992C7.1527 3.94436 7.69436 3.7152 8.24992 3.56242C8.80548 3.40964 9.37492 3.33325 9.95825 3.33325C11.8194 3.33325 13.4027 3.97909 14.7083 5.27075C16.0138 6.56242 16.6666 8.13881 16.6666 9.99992V10.1458L17.9999 8.81242L19.1666 9.97908L15.8333 13.3124Z" fill="#327C99"/>
</g>
</g>
</svg>
