<svg width="117" height="23" viewBox="0 0 117 23" fill="none" xmlns="http://www.w3.org/2000/svg">
<g id="Frame" clip-path="url(#clip0_3690_3006)">
<path id="Vector" fill-rule="evenodd" clip-rule="evenodd" d="M0.839844 21.8508L21.13 4.95475C21.3791 4.73808 21.5809 4.47248 21.7229 4.17446C21.8649 3.87644 21.944 3.55239 21.9554 3.22246C21.9668 2.89254 21.9101 2.56381 21.789 2.25671C21.6679 1.94962 21.4848 1.67075 21.2513 1.43744C21.0177 1.20413 20.7387 1.02138 20.4314 0.900562C20.1242 0.779744 19.7954 0.723442 19.4655 0.735159C19.1356 0.746876 18.8116 0.826361 18.5138 0.96867C18.2159 1.11098 17.9505 1.31306 17.7341 1.56235L0.839844 21.8508ZM10.6272 3.85299L2.08504 10.2594L8.49144 1.71723C8.62277 1.54298 8.78995 1.39894 8.98171 1.29483C9.17347 1.19073 9.38534 1.12898 9.603 1.11377C9.82067 1.09855 10.0391 1.13022 10.2434 1.20664C10.4478 1.28306 10.6334 1.40244 10.7877 1.55673C10.942 1.71102 11.0614 1.89662 11.1378 2.10099C11.2142 2.30537 11.2459 2.52377 11.2307 2.74143C11.2155 2.9591 11.1537 3.17096 11.0496 3.36272C10.9455 3.55448 10.8015 3.72167 10.6272 3.85299ZM20.9707 14.1992L12.4286 20.6056L18.835 12.0643C18.9663 11.89 19.1335 11.746 19.3252 11.6419C19.517 11.5378 19.7289 11.476 19.9465 11.4608C20.1642 11.4456 20.3826 11.4773 20.587 11.5537C20.7913 11.6301 20.9769 11.7495 21.1312 11.9038C21.2855 12.0581 21.4049 12.2437 21.4813 12.448C21.5577 12.6524 21.5894 12.8708 21.5742 13.0885C21.559 13.3061 21.4972 13.518 21.3931 13.7098C21.289 13.9015 21.145 14.0678 20.9707 14.1992ZM33.2784 11.296C33.2784 8.50732 35.6482 6.09259 38.9342 6.09259C40.5622 6.09259 42.0177 6.68659 43.0526 7.62115C43.1142 7.67659 43.2092 7.67395 43.2673 7.61411L45.2455 5.54083C45.2727 5.51199 45.2873 5.47355 45.2861 5.43396C45.285 5.39437 45.2681 5.35685 45.2394 5.32963C43.6052 3.82307 41.363 2.92547 38.9342 2.92547C34.0722 2.92547 30.1104 6.58979 30.1104 11.296C30.1104 16.0023 34.0722 19.6675 38.9342 19.6675C41.0954 19.6675 43.2312 18.9424 44.8143 17.6998L45.3617 17.2686C45.3796 17.2546 45.3941 17.2367 45.4042 17.2163C45.4142 17.1959 45.4196 17.1734 45.4198 17.1507V11.2969L45.418 11.2952V10.0896C45.418 10.0496 45.4021 10.0114 45.3739 9.98315C45.3457 9.95493 45.3074 9.93907 45.2675 9.93907H41.26C41.2396 9.9391 41.2194 9.94324 41.2007 9.95125C41.1819 9.95927 41.165 9.97099 41.1509 9.98571L38.5883 12.7005C38.5676 12.7219 38.5537 12.7489 38.5484 12.7781C38.543 12.8073 38.5464 12.8375 38.5582 12.8648C38.57 12.8921 38.5895 12.9153 38.6145 12.9315C38.6394 12.9477 38.6686 12.9561 38.6983 12.9557H42.1004C42.1202 12.9555 42.1398 12.9592 42.1582 12.9666C42.1765 12.974 42.1932 12.985 42.2073 12.9989C42.2214 13.0128 42.2326 13.0294 42.2402 13.0477C42.2478 13.0659 42.2518 13.0855 42.2518 13.1053V15.5324C42.2516 15.5587 42.2446 15.5845 42.2313 15.6072C42.218 15.6299 42.199 15.6487 42.1761 15.6617C41.1836 16.2113 40.0677 16.4996 38.9333 16.4995C35.6474 16.4995 33.2784 14.0848 33.2784 11.296ZM95.49 3.30211H99.0399C99.164 3.30211 99.2344 3.44379 99.1605 3.54323L93.3754 11.304C93.3559 11.3302 93.3455 11.3621 93.3457 11.3947C93.3458 11.4274 93.3565 11.4592 93.3762 11.4852L99.1552 19.048C99.172 19.0704 99.1822 19.0971 99.1847 19.125C99.1872 19.1529 99.182 19.181 99.1695 19.2061C99.157 19.2312 99.1377 19.2523 99.1139 19.2671C99.0901 19.2819 99.0627 19.2898 99.0346 19.29H95.1926C95.1691 19.29 95.146 19.2845 95.125 19.274C95.1041 19.2634 95.0859 19.2481 95.072 19.2292L91.3901 14.2907C91.376 14.2719 91.3577 14.2567 91.3367 14.2462C91.3157 14.2357 91.2926 14.2302 91.2691 14.2302C91.2456 14.2302 91.2225 14.2357 91.2015 14.2462C91.1805 14.2567 91.1622 14.2719 91.1481 14.2907L87.467 19.2292C87.4531 19.248 87.4349 19.2633 87.414 19.2739C87.393 19.2844 87.3699 19.2899 87.3465 19.29H83.5035C83.4753 19.2901 83.4475 19.2823 83.4235 19.2675C83.3995 19.2526 83.3801 19.2313 83.3676 19.206C83.3551 19.1807 83.35 19.1523 83.3529 19.1242C83.3558 19.0961 83.3665 19.0694 83.3838 19.0471L89.1619 11.4852C89.1817 11.4593 89.1926 11.4276 89.1929 11.3949C89.1933 11.3622 89.183 11.3303 89.1637 11.304L83.3777 3.54235C83.3608 3.51993 83.3504 3.49321 83.3479 3.46523C83.3454 3.43724 83.3508 3.40911 83.3634 3.38402C83.376 3.35893 83.3954 3.33787 83.4194 3.32324C83.4434 3.30861 83.471 3.30099 83.4991 3.30123H87.0482C87.0957 3.30123 87.1397 3.32323 87.1687 3.36107L91.1498 8.57067C91.1638 8.58925 91.1818 8.60433 91.2026 8.61472C91.2234 8.62511 91.2463 8.63051 91.2695 8.63051C91.2927 8.63051 91.3157 8.62511 91.3364 8.61472C91.3572 8.60433 91.3753 8.58925 91.3892 8.57067L95.3703 3.36107C95.3843 3.34254 95.4024 3.3275 95.4231 3.31712C95.4439 3.30674 95.4668 3.3013 95.49 3.30123V3.30211ZM59.1222 3.30211H55.699C55.6698 3.30191 55.6411 3.3103 55.6165 3.32626C55.5919 3.34222 55.5726 3.36503 55.5609 3.39187L48.6054 19.0779C48.5953 19.1009 48.5911 19.126 48.5932 19.151C48.5952 19.1761 48.6035 19.2002 48.6172 19.2212C48.6309 19.2423 48.6496 19.2596 48.6717 19.2715C48.6937 19.2835 48.7184 19.2899 48.7435 19.29H52.0321C52.0615 19.2901 52.0902 19.2816 52.1148 19.2654C52.1394 19.2493 52.1587 19.2263 52.1702 19.1993L53.4999 16.1228H61.3205L62.6493 19.1993C62.661 19.2264 62.6805 19.2494 62.7052 19.2655C62.7299 19.2817 62.7588 19.2901 62.7883 19.29H66.0769C66.102 19.29 66.1267 19.2838 66.1487 19.272C66.1708 19.2601 66.1896 19.2428 66.2033 19.2219C66.217 19.2009 66.2253 19.1768 66.2273 19.1518C66.2294 19.1268 66.2252 19.1017 66.215 19.0788L59.2595 3.39099C59.2478 3.36436 59.2286 3.3417 59.2042 3.32577C59.1798 3.30983 59.1514 3.30131 59.1222 3.30123V3.30211ZM60.0814 13.2567H54.7381L57.2725 7.39323C57.2841 7.36626 57.3034 7.34328 57.328 7.32713C57.3525 7.31099 57.3813 7.30239 57.4106 7.30239C57.44 7.30239 57.4688 7.31099 57.4933 7.32713C57.5179 7.34328 57.5372 7.36626 57.5488 7.39323L60.0814 13.2567ZM69.9286 3.30211C69.9088 3.30211 69.8892 3.30604 69.8708 3.31365C69.8525 3.32127 69.8359 3.33243 69.8219 3.3465C69.8079 3.36057 69.7969 3.37726 69.7894 3.39562C69.7819 3.41398 69.778 3.43364 69.7782 3.45347V19.1395C69.7782 19.2222 69.8459 19.29 69.9286 19.29H78.755C78.7778 19.2898 78.8003 19.2845 78.8207 19.2745C78.8411 19.2644 78.859 19.2498 78.873 19.2319L80.897 16.6684C80.9147 16.6463 80.9259 16.6195 80.9291 16.5913C80.9323 16.5631 80.9275 16.5345 80.9151 16.5089C80.9028 16.4833 80.8835 16.4618 80.8594 16.4467C80.8353 16.4316 80.8074 16.4237 80.779 16.4238H73.3985V3.45259C73.3983 3.41284 73.3823 3.37479 73.3541 3.34676C73.3259 3.31873 73.2878 3.30299 73.248 3.30299H69.9304L69.9286 3.30211ZM116.383 3.30211C116.467 3.30211 116.534 3.36987 116.534 3.45347V6.16827C116.534 6.20826 116.518 6.24654 116.49 6.27473C116.461 6.30293 116.423 6.31875 116.383 6.31875H107.032C107.012 6.31875 106.993 6.32267 106.974 6.33029C106.956 6.33791 106.939 6.34907 106.925 6.36314C106.911 6.37721 106.9 6.3939 106.893 6.41226C106.885 6.43062 106.881 6.45028 106.882 6.47011V9.63723C106.881 9.65703 106.885 9.67665 106.893 9.69496C106.9 9.71327 106.911 9.7299 106.925 9.7439C106.939 9.7579 106.956 9.76898 106.974 9.7765C106.993 9.78402 107.012 9.78783 107.032 9.78771H115.78C115.8 9.7876 115.82 9.79144 115.838 9.79901C115.856 9.80659 115.873 9.81775 115.887 9.83184C115.901 9.84593 115.912 9.86267 115.92 9.88108C115.927 9.89949 115.931 9.91921 115.931 9.93907V12.6539C115.931 12.6737 115.927 12.6933 115.919 12.7116C115.912 12.7299 115.901 12.7465 115.887 12.7605C115.873 12.7745 115.856 12.7856 115.838 12.7931C115.82 12.8007 115.8 12.8045 115.78 12.8044H107.032C106.992 12.8046 106.954 12.8205 106.926 12.8487C106.898 12.8769 106.882 12.915 106.882 12.9548V16.1228C106.882 16.2056 106.949 16.2733 107.032 16.2733H116.685C116.768 16.2733 116.836 16.3411 116.836 16.4247V19.1395C116.836 19.1795 116.82 19.2177 116.792 19.2459C116.763 19.2741 116.725 19.29 116.685 19.29H103.413C103.373 19.29 103.334 19.2741 103.306 19.2459C103.278 19.2177 103.262 19.1795 103.261 19.1395V3.45347C103.261 3.36987 103.329 3.30211 103.413 3.30211H116.383Z" fill="black"/>
</g>
<defs>
<clipPath id="clip0_3690_3006">
<rect width="116.16" height="22" fill="white" transform="translate(0.839844 0.735352)"/>
</clipPath>
</defs>
</svg>
