<svg width="144" height="38" viewBox="0 0 144 38" fill="none" xmlns="http://www.w3.org/2000/svg">
<g id="OpenSea" clip-path="url(#clip0_3690_2981)">
<g id="Clip path group">
<mask id="mask0_3690_2981" style="mask-type:luminance" maskUnits="userSpaceOnUse" x="0" y="0" width="38" height="38">
<g id="clip0_1_4">
<path id="Vector" d="M37.3465 0.0625H0V37.409H37.3465V0.0625Z" fill="white"/>
</g>
</mask>
<g mask="url(#mask0_3690_2981)">
<g id="Group">
<path id="Vector_2" d="M35.3616 17.6186C35.3616 26.9379 27.8068 34.4927 18.4875 34.4927C9.16811 34.4927 1.61328 26.9379 1.61328 17.6186C1.61328 8.29921 9.16811 0.744385 18.4875 0.744385C27.8068 0.744385 35.3616 8.29921 35.3616 17.6186Z" fill="white"/>
<path id="Vector_3" d="M18.8353 0.0624332C8.3938 -0.0247087 -0.0869645 8.45606 0.000177312 18.8975C0.0873192 29.0371 8.37201 37.3218 18.5084 37.4058C28.95 37.4961 37.4338 29.0122 37.3436 18.5707C37.2595 8.43428 28.9749 0.149575 18.8353 0.0624332ZM13.252 9.35549C14.4471 10.8743 15.1629 12.7945 15.1629 14.8796C15.1629 16.6848 14.6275 18.3654 13.7064 19.7689H7.23295L13.252 9.35549ZM32.9896 22.0751C32.9896 22.1622 32.9429 22.2369 32.862 22.2711C32.4232 22.4579 30.976 23.1301 30.3722 23.9674C28.8192 26.1304 27.6335 29.5289 24.9819 29.5289H13.9179C9.9997 29.5289 6.72255 26.4197 6.72567 22.2773C6.72567 22.1747 6.8128 22.0906 6.9155 22.0906H12.1596C12.3401 22.0906 12.4832 22.2369 12.4832 22.4143V23.4258C12.4832 23.9643 12.919 24.3999 13.4574 24.3999H17.4348V22.0844H14.7178C16.2802 20.105 17.2107 17.6059 17.2107 14.8858C17.2107 11.8515 16.0467 9.08473 14.142 7.0151C15.2935 7.14893 16.3953 7.37924 17.4348 7.68424V7.04C17.4348 6.37088 17.9763 5.82936 18.6454 5.82936C19.3146 5.82936 19.856 6.37088 19.856 7.04V8.593C23.569 10.3265 25.9996 13.2021 25.9996 16.4544C25.9996 18.3623 25.1656 20.1393 23.7245 21.6331C23.4476 21.9195 23.0647 22.0813 22.6633 22.0813H19.856V24.3937H23.3791C24.1385 24.3937 25.5017 22.9527 26.149 22.0844C26.149 22.0844 26.177 22.0408 26.2517 22.019C26.3264 21.9973 32.722 20.5284 32.722 20.5284C32.8557 20.491 32.9896 20.5936 32.9896 20.7306V22.0751Z" fill="#0086FF"/>
</g>
</g>
</g>
<path id="Vector_4" d="M52.5137 26.8385C51.0364 26.8385 49.6796 26.4917 48.4434 25.7982C47.2073 25.1048 46.2275 24.1475 45.5039 22.9264C44.7803 21.6902 44.4185 20.2959 44.4185 18.7431C44.4185 17.2054 44.7803 15.8261 45.5039 14.6049C46.2275 13.3688 47.2073 12.404 48.4434 11.7106C49.6796 11.0171 51.0364 10.6704 52.5137 10.6704C54.0062 10.6704 55.363 11.0171 56.584 11.7106C57.8201 12.404 58.7925 13.3688 59.5011 14.6049C60.2247 15.8261 60.5865 17.2054 60.5865 18.7431C60.5865 20.2959 60.2247 21.6902 59.5011 22.9264C58.7925 24.1475 57.8201 25.1048 56.584 25.7982C55.3478 26.4917 53.9911 26.8385 52.5137 26.8385ZM52.5137 24.0118C53.4635 24.0118 54.3001 23.8007 55.0238 23.3786C55.7474 22.9415 56.3126 22.3234 56.7197 21.5245C57.1267 20.7254 57.3303 19.7983 57.3303 18.7431C57.3303 17.6878 57.1267 16.7683 56.7197 15.9844C56.3126 15.1854 55.7474 14.5748 55.0238 14.1527C54.3001 13.7306 53.4635 13.5195 52.5137 13.5195C51.564 13.5195 50.7198 13.7306 49.9811 14.1527C49.2575 14.5748 48.6922 15.1854 48.2852 15.9844C47.8782 16.7683 47.6747 17.6878 47.6747 18.7431C47.6747 19.7983 47.8782 20.7254 48.2852 21.5245C48.6922 22.3234 49.2575 22.9415 49.9811 23.3786C50.7198 23.8007 51.564 24.0118 52.5137 24.0118Z" fill="black"/>
<path id="Vector_5" d="M65.2034 15.962C65.6105 15.3891 66.1682 14.9143 66.8768 14.5375C67.6004 14.1455 68.4219 13.9495 69.3415 13.9495C70.4118 13.9495 71.3766 14.2132 72.2359 14.7409C73.1103 15.2685 73.7962 16.0223 74.2937 17.0022C74.8063 17.967 75.0625 19.0901 75.0625 20.3714C75.0625 21.6529 74.8063 22.791 74.2937 23.786C73.7962 24.7658 73.1103 25.5271 72.2359 26.0698C71.3766 26.6125 70.4118 26.8839 69.3415 26.8839C68.4219 26.8839 67.6078 26.6954 66.8993 26.3186C66.2059 25.9417 65.6406 25.4668 65.2034 24.894V32.6501H62.0376V14.1529H65.2034V15.962ZM71.8288 20.3714C71.8288 19.6177 71.6706 18.9695 71.354 18.4268C71.0525 17.869 70.6455 17.4469 70.133 17.1605C69.6354 16.874 69.0927 16.7308 68.5049 16.7308C67.932 16.7308 67.3893 16.8816 66.8768 17.1831C66.3792 17.4695 65.9723 17.8916 65.6556 18.4494C65.3541 19.0071 65.2034 19.663 65.2034 20.4167C65.2034 21.1705 65.3541 21.8262 65.6556 22.3839C65.9723 22.9418 66.3792 23.3715 66.8768 23.673C67.3893 23.9593 67.932 24.1025 68.5049 24.1025C69.0927 24.1025 69.6354 23.9518 70.133 23.6502C70.6455 23.3487 71.0525 22.9192 71.354 22.3614C71.6706 21.8036 71.8288 21.1403 71.8288 20.3714Z" fill="black"/>
<path id="Vector_6" d="M88.7822 20.1454C88.7822 20.5976 88.7521 21.0046 88.6918 21.3664H79.5337C79.6091 22.2709 79.9256 22.9795 80.4835 23.4921C81.0412 24.0046 81.7271 24.2608 82.5411 24.2608C83.717 24.2608 84.5537 23.7558 85.0512 22.7457H88.4657C88.1039 23.9518 87.4104 24.9467 86.3853 25.7306C85.3602 26.4995 84.1015 26.8839 82.609 26.8839C81.403 26.8839 80.3176 26.6201 79.3528 26.0924C78.4031 25.5497 77.6568 24.7885 77.1141 23.8086C76.5865 22.8288 76.3228 21.6981 76.3228 20.4167C76.3228 19.1203 76.5865 17.982 77.1141 17.0022C77.6418 16.0223 78.3804 15.2685 79.3302 14.7409C80.2799 14.2132 81.3728 13.9495 82.609 13.9495C83.8 13.9495 84.8627 14.2058 85.7974 14.7184C86.7471 15.2309 87.4783 15.962 87.9909 16.9117C88.5184 17.8464 88.7822 18.9242 88.7822 20.1454ZM85.5034 19.2409C85.4884 18.4268 85.1944 17.7785 84.6215 17.2961C84.0486 16.7987 83.3477 16.5499 82.5185 16.5499C81.7346 16.5499 81.0713 16.7911 80.5286 17.2735C80.0011 17.7408 79.6769 18.3967 79.5563 19.2409H85.5034Z" fill="black"/>
<path id="Vector_7" d="M97.3565 13.9719C98.849 13.9719 100.055 14.4469 100.975 15.3966C101.894 16.3312 102.354 17.6428 102.354 19.3312V26.6803H99.1883V19.7608C99.1883 18.7658 98.9395 18.0046 98.4419 17.4769C97.9445 16.9342 97.2661 16.6629 96.4069 16.6629C95.5325 16.6629 94.8391 16.9342 94.3265 17.4769C93.829 18.0046 93.5803 18.7658 93.5803 19.7608V26.6803H90.4146V14.1528H93.5803V15.7132C94.0024 15.1705 94.5376 14.7484 95.1857 14.4469C95.849 14.1302 96.5726 13.9719 97.3565 13.9719Z" fill="black"/>
<path id="Vector_8" d="M109.683 26.8385C108.583 26.8385 107.588 26.65 106.698 26.2731C105.824 25.8962 105.131 25.3535 104.618 24.645C104.106 23.9365 103.842 23.0999 103.827 22.135H107.218C107.264 22.7832 107.49 23.2958 107.897 23.6727C108.319 24.0495 108.892 24.238 109.615 24.238C110.354 24.238 110.935 24.0647 111.357 23.7179C111.779 23.3561 111.99 22.8888 111.99 22.3159C111.99 21.8486 111.847 21.4642 111.56 21.1627C111.274 20.8612 110.912 20.6275 110.475 20.4616C110.053 20.2807 109.465 20.0848 108.711 19.8738C107.686 19.5723 106.849 19.2782 106.201 18.9919C105.568 18.6904 105.018 18.2457 104.55 17.6577C104.098 17.0547 103.872 16.2558 103.872 15.2608C103.872 14.3261 104.106 13.5121 104.573 12.8186C105.04 12.1252 105.696 11.5975 106.54 11.2357C107.384 10.8588 108.349 10.6704 109.435 10.6704C111.063 10.6704 112.382 11.0699 113.392 11.8689C114.417 12.6528 114.982 13.7533 115.088 15.1704H111.605C111.575 14.6277 111.342 14.1828 110.904 13.8362C110.482 13.4744 109.917 13.2935 109.208 13.2935C108.59 13.2935 108.093 13.4518 107.716 13.7683C107.354 14.0849 107.173 14.5446 107.173 15.1476C107.173 15.5698 107.309 15.9241 107.58 16.2105C107.867 16.4818 108.213 16.708 108.621 16.8889C109.043 17.0547 109.631 17.2507 110.384 17.4768C111.409 17.7783 112.246 18.0798 112.894 18.3813C113.543 18.6828 114.1 19.135 114.568 19.738C115.035 20.341 115.269 21.1325 115.269 22.1123C115.269 22.9565 115.05 23.7404 114.613 24.4641C114.176 25.1877 113.535 25.7681 112.691 26.2053C111.847 26.6274 110.844 26.8385 109.683 26.8385Z" fill="black"/>
<path id="Vector_9" d="M128.754 20.1454C128.754 20.5976 128.723 21.0046 128.664 21.3664H119.505C119.581 22.2709 119.897 22.9795 120.455 23.4921C121.013 24.0046 121.699 24.2608 122.513 24.2608C123.689 24.2608 124.526 23.7558 125.023 22.7457H128.438C128.076 23.9518 127.382 24.9467 126.357 25.7306C125.332 26.4995 124.073 26.8839 122.581 26.8839C121.375 26.8839 120.289 26.6201 119.325 26.0924C118.375 25.5497 117.629 24.7885 117.086 23.8086C116.558 22.8288 116.294 21.6981 116.294 20.4167C116.294 19.1203 116.558 17.982 117.086 17.0022C117.613 16.0223 118.352 15.2685 119.302 14.7409C120.252 14.2132 121.345 13.9495 122.581 13.9495C123.772 13.9495 124.835 14.2058 125.769 14.7184C126.718 15.2309 127.45 15.962 127.963 16.9117C128.49 17.8464 128.754 18.9242 128.754 20.1454ZM125.475 19.2409C125.46 18.4268 125.166 17.7785 124.593 17.2961C124.02 16.7987 123.319 16.5499 122.49 16.5499C121.706 16.5499 121.043 16.7911 120.5 17.2735C119.973 17.7408 119.649 18.3967 119.528 19.2409H125.475Z" fill="black"/>
<path id="Vector_10" d="M129.799 20.3714C129.799 19.1051 130.048 17.982 130.546 17.0022C131.058 16.0223 131.744 15.2685 132.603 14.7409C133.478 14.2132 134.45 13.9495 135.52 13.9495C136.455 13.9495 137.269 14.1379 137.963 14.5147C138.671 14.8917 139.236 15.3665 139.659 15.9394V14.1529H142.847V26.6804H139.659V24.8488C139.251 25.4367 138.686 25.9267 137.963 26.3186C137.254 26.6954 136.432 26.8839 135.498 26.8839C134.443 26.8839 133.478 26.6125 132.603 26.0698C131.744 25.5271 131.058 24.7658 130.546 23.786C130.048 22.791 129.799 21.6529 129.799 20.3714ZM139.659 20.4167C139.659 19.6478 139.508 18.9921 139.206 18.4494C138.905 17.8916 138.498 17.4695 137.985 17.1831C137.473 16.8816 136.922 16.7308 136.334 16.7308C135.747 16.7308 135.204 16.874 134.706 17.1605C134.208 17.4469 133.801 17.869 133.485 18.4268C133.184 18.9695 133.033 19.6177 133.033 20.3714C133.033 21.1252 133.184 21.7885 133.485 22.3614C133.801 22.9192 134.208 23.3487 134.706 23.6502C135.218 23.9518 135.762 24.1025 136.334 24.1025C136.922 24.1025 137.473 23.9593 137.985 23.673C138.498 23.3715 138.905 22.9494 139.206 22.4066C139.508 21.8488 139.659 21.1855 139.659 20.4167Z" fill="black"/>
</g>
<defs>
<clipPath id="clip0_3690_2981">
<rect width="143.927" height="37.4706" fill="white"/>
</clipPath>
</defs>
</svg>
