<svg width="61" height="61" viewBox="0 0 61 61" fill="none" xmlns="http://www.w3.org/2000/svg">
<g clip-path="url(#clip0_2341_32423)">
<path d="M30.5 60.5C47.0685 60.5 60.5 47.0685 60.5 30.5C60.5 13.9315 47.0685 0.5 30.5 0.5C13.9315 0.5 0.5 13.9315 0.5 30.5C0.5 47.0685 13.9315 60.5 30.5 60.5Z" fill="#FF0420"/>
<path d="M21.752 38.4681C19.964 38.4681 18.5 38.0481 17.36 37.2081C16.232 36.3561 15.668 35.1321 15.668 33.5601C15.668 33.2241 15.704 32.8281 15.776 32.3481C15.968 31.2681 16.244 29.9721 16.604 28.4481C17.624 24.3201 20.264 22.2561 24.512 22.2561C25.664 22.2561 26.708 22.4481 27.62 22.8441C28.532 23.2161 29.252 23.7921 29.78 24.5601C30.308 25.3161 30.572 26.2161 30.572 27.2601C30.572 27.5721 30.536 27.9681 30.464 28.4481C30.236 29.7801 29.972 31.0881 29.648 32.3481C29.12 34.4001 28.22 35.9481 26.924 36.9681C25.64 37.9761 23.912 38.4681 21.752 38.4681ZM22.076 35.2281C22.916 35.2281 23.624 34.9761 24.212 34.4841C24.812 33.9921 25.244 33.2361 25.496 32.2041C25.844 30.7881 26.108 29.5641 26.288 28.5081C26.348 28.1961 26.384 27.8721 26.384 27.5361C26.384 26.1681 25.676 25.4841 24.248 25.4841C23.408 25.4841 22.688 25.7361 22.088 26.2281C21.5 26.7201 21.08 27.4761 20.828 28.5081C20.552 29.5161 20.288 30.7401 20.012 32.2041C19.952 32.5041 19.916 32.8161 19.916 33.1521C19.904 34.5441 20.636 35.2281 22.076 35.2281Z" fill="white"/>
<path d="M31.616 38.2519C31.448 38.2519 31.328 38.2039 31.232 38.0959C31.16 37.9759 31.136 37.8439 31.16 37.6879L34.268 23.0479C34.292 22.8799 34.376 22.7479 34.52 22.6399C34.652 22.5319 34.796 22.4839 34.952 22.4839H40.94C42.608 22.4839 43.94 22.8319 44.948 23.5159C45.968 24.2119 46.484 25.2079 46.484 26.5159C46.484 26.8879 46.436 27.2839 46.352 27.6919C45.98 29.4199 45.224 30.6919 44.072 31.5199C42.944 32.3479 41.396 32.7559 39.428 32.7559H36.392L35.36 37.6879C35.324 37.8559 35.252 37.9879 35.108 38.0959C34.976 38.2039 34.832 38.2519 34.676 38.2519H31.616ZM39.584 29.6479C40.22 29.6479 40.76 29.4799 41.228 29.1319C41.708 28.7839 42.02 28.2919 42.176 27.6439C42.224 27.3919 42.248 27.1639 42.248 26.9719C42.248 26.5399 42.116 26.2039 41.864 25.9759C41.612 25.7359 41.168 25.6159 40.556 25.6159H37.856L37.004 29.6479H39.584Z" fill="white"/>
</g>
<defs>
<clipPath id="clip0_2341_32423">
<rect width="60" height="60" fill="white" transform="translate(0.5 0.5)"/>
</clipPath>
</defs>
</svg>
