<svg width="128" height="37" viewBox="0 0 128 37" fill="none" xmlns="http://www.w3.org/2000/svg">
<g id="Rarrible" clip-path="url(#clip0_3690_2995)">
<path id="Vector" d="M0.649902 8.71803C0.649902 4.39589 4.1537 0.89209 8.47584 0.89209H28.5102C32.8324 0.89209 36.3362 4.39589 36.3362 8.71803V28.7524C36.3362 33.0745 32.8324 36.5784 28.5102 36.5784H8.47584C4.1537 36.5784 0.649902 33.0745 0.649902 28.7524V8.71803Z" fill="#FEDA03"/>
<path id="Vector_2" fill-rule="evenodd" clip-rule="evenodd" d="M27.5327 15.8312C27.5327 17.5431 26.5326 18.3946 25.4086 18.6904C26.7539 19.0936 27.7274 20.1961 27.7274 21.9438V25.1524H22.5939V22.1051C22.5939 21.1729 22.0452 20.7965 21.107 20.7965H15.0177V25.1524H9.88428V12.3179H22.0807C25.143 12.3179 27.5327 12.9811 27.5327 15.8312ZM15.02 15.9037H21.9599V15.9043C21.9702 15.9039 21.9807 15.9037 21.991 15.9037C22.4682 15.9037 22.8551 16.2954 22.8551 16.7787C22.8551 17.2618 22.4682 17.6536 21.991 17.6536C21.9807 17.6536 21.9702 17.6534 21.9599 17.6531V17.6536H15.02V15.9037Z" fill="black"/>
<path id="Vector_3" fill-rule="evenodd" clip-rule="evenodd" d="M107.245 21.4483C107.245 25.1927 105.074 27.7701 101.392 27.7701C99.8801 27.7701 98.49 27.138 97.8804 26.1654V27.5756H94.8076V10.3608H97.8804V16.6827C98.5875 15.7587 99.9043 15.1265 101.441 15.1265C105.074 15.1265 107.245 17.7039 107.245 21.4483ZM97.6852 21.4483C97.6852 23.6609 98.9777 25.1198 100.953 25.1198C102.904 25.1198 104.196 23.6609 104.196 21.4483C104.196 19.2356 102.904 17.7769 100.953 17.7769C98.9777 17.7769 97.6852 19.2356 97.6852 21.4483Z" fill="black"/>
<path id="Vector_4" fill-rule="evenodd" clip-rule="evenodd" d="M63.7455 27.5754L59.9924 19.965C61.6751 19.1383 62.6748 17.5092 62.6748 15.5883C62.6748 12.5247 60.5045 10.5552 57.1636 10.5552H49.0142L49.0386 27.5754H52.3551V20.5972H56.6027L59.8927 27.5754H63.7455ZM52.3551 13.4H56.6515C58.3585 13.4 59.3339 14.2267 59.3339 15.5883C59.3339 16.95 58.3585 17.7523 56.6515 17.7523H52.3551V13.4Z" fill="black"/>
<path id="Vector_5" fill-rule="evenodd" clip-rule="evenodd" d="M73.6808 15.321H76.7534V27.5755H73.6808V26.1653C73.0711 27.1379 71.7055 27.7701 70.1691 27.7701C66.4869 27.7701 64.3164 25.1927 64.3164 21.4483C64.3164 17.7039 66.4869 15.1265 70.1203 15.1265C71.6567 15.1265 72.9735 15.7586 73.6808 16.6826V15.321ZM67.3648 21.4483C67.3648 23.6608 68.6571 25.1197 70.608 25.1197C72.5834 25.1197 73.8758 23.6608 73.8758 21.4483C73.8758 19.2356 72.5834 17.7768 70.608 17.7768C68.6571 17.7768 67.3648 19.2356 67.3648 21.4483Z" fill="black"/>
<path id="Vector_6" d="M87.4599 15.321L87.2648 18.2874C86.826 18.0928 86.2406 17.9956 85.7042 17.9956C83.9728 17.9956 82.412 19.4301 82.412 23.0773V27.5755H79.3394V15.321H82.412V17.5579C83.0216 16.172 84.6311 15.1265 86.1187 15.1265C86.5577 15.1265 87.0941 15.1994 87.4599 15.321Z" fill="black"/>
<path id="Vector_7" d="M92.2323 27.5756H89.1597V15.321H92.2323V27.5756Z" fill="black"/>
<path id="Vector_8" d="M109.485 27.5756H112.558V10.3608H109.485V27.5756Z" fill="black"/>
<path id="Vector_9" fill-rule="evenodd" clip-rule="evenodd" d="M127.03 21.0349C127.03 18.19 125.006 15.1265 120.861 15.1265C116.788 15.1265 114.789 18.2631 114.789 21.4483C114.789 24.6334 116.959 27.7701 121.031 27.7701C123.909 27.7701 126.055 26.4085 126.738 24.0986L123.86 23.3206C123.543 24.512 122.519 25.1927 121.08 25.1927C119.324 25.1927 118.129 24.0986 117.861 22.2506H126.982C127.006 22.0075 127.03 21.4725 127.03 21.0349ZM117.934 20.0136C118.276 18.3603 119.349 17.4607 120.861 17.4607C122.641 17.4607 123.592 18.5549 123.738 20.0136H117.934Z" fill="black"/>
<path id="Vector_10" d="M90.2562 9.81348C89.4948 9.81348 88.8774 10.4181 88.8774 11.164V12.0629C88.8774 12.8088 89.4948 13.4134 90.2562 13.4134H91.147C91.9084 13.4134 92.5257 12.8088 92.5257 12.0629V11.164C92.5257 10.4181 91.9084 9.81348 91.147 9.81348H90.2562Z" fill="black"/>
</g>
<defs>
<clipPath id="clip0_3690_2995">
<rect width="126.467" height="35.6863" fill="white" transform="translate(0.649902 0.89209)"/>
</clipPath>
</defs>
</svg>
