<svg id="Layer_1" data-name="Layer 1" xmlns="http://www.w3.org/2000/svg" viewBox="0 0 1025.27 210.42"><defs><style>.cls-1{fill:#4f37fd;}.cls-2{fill:#2ccd9a;}.cls-3{fill:#1c1e4f;}</style></defs><path class="cls-1" d="M204.47,104.63H139.09V224.77h65.38Z" transform="translate(-18.95 -15.26)"/><path class="cls-2" d="M288.54,15.26H168.39V75.33H288.54Z" transform="translate(-18.95 -15.26)"/><path class="cls-1" d="M139.09,44.55H19v60.08H139.09Z" transform="translate(-18.95 -15.26)"/><path class="cls-3" d="M921.22,83.63H895.78v142h24.34V132.12h1.1l48.27,93.51h1.23l48.49-93.51h1v93.51h24v-142h-23.28L971.43,180h-.79ZM370,225.63h24.34V104.8h63.57V83.7H394.36v21.1H319.31v21.1H370Zm212.13-142v19.05h45.77v123h24.34v-123H698V83.63ZM831.83,192.3a11.51,11.51,0,0,1-12.17,12.17H766.92a11.51,11.51,0,0,1-8.82-3.35,11.51,11.51,0,0,1-3.35-8.82V83.63H730.41V191.15c0,20.48,14,34.53,34.52,34.53h56.8c20.5,0,34.52-14,34.52-34.53V83.63H831.83ZM532.67,168.56H485.35l23.33-57.2h.82Zm-10.29-85H497.24l-59,142h23.74l14.61-35.91h64.73l14.57,35.91H581.2Z" transform="translate(-18.95 -15.26)"/></svg>