<svg width="606" height="456" viewBox="0 0 606 456" fill="none" xmlns="http://www.w3.org/2000/svg">
<circle cx="455.945" cy="455.945" r="454.945" transform="matrix(-1 0 0 1 615.894 -455.945)" stroke="#F8D772" stroke-width="2"/>
<circle cx="362.776" cy="362.776" r="361.776" transform="matrix(-1 0 0 1 478.733 -431.266)" stroke="#F8D772" stroke-width="2"/>
<circle cx="269.296" cy="269.296" r="268.296" transform="matrix(-1 0 0 1 353.793 -407.895)" stroke="#F8D772" stroke-width="2"/>
<g clip-path="url(#clip0_3859_609)">
<path d="M446.976 389.62C447.07 402.727 441.983 415.334 432.832 424.669C423.682 434.003 411.22 439.3 398.186 439.395C385.152 439.489 372.615 434.372 363.332 425.172C354.05 415.97 348.782 403.438 348.688 390.331C348.335 365.088 370.962 340.557 398.186 340.557C404.598 340.538 410.951 341.794 416.879 344.253C422.807 346.712 428.193 350.325 432.727 354.885C437.262 359.445 440.855 364.861 443.3 370.822C445.746 376.783 446.995 383.172 446.976 389.62Z" fill="black"/>
<path fill-rule="evenodd" clip-rule="evenodd" d="M416.565 345.01C410.738 342.592 404.492 341.357 398.188 341.376H398.186C371.431 341.376 349.16 365.521 349.507 390.32L349.508 390.325C349.6 403.216 354.781 415.541 363.909 424.59C373.037 433.638 385.365 438.669 398.18 438.576C410.995 438.483 423.25 433.275 432.248 424.095C441.246 414.916 446.25 402.517 446.157 389.626V389.622V389.618C446.175 383.277 444.947 376.995 442.543 371.133C440.138 365.271 436.605 359.946 432.147 355.463C427.689 350.98 422.393 347.427 416.565 345.01ZM398.185 339.738C404.706 339.719 411.165 340.996 417.193 343.497C423.221 345.997 428.698 349.671 433.309 354.307C437.919 358.944 441.572 364.451 444.059 370.511C446.544 376.571 447.814 383.064 447.796 389.618C447.89 402.939 442.719 415.753 433.418 425.242C424.115 434.732 411.444 440.117 398.192 440.214C384.939 440.31 372.193 435.107 362.756 425.753C353.32 416.4 347.965 403.661 347.869 390.34C347.511 364.654 370.494 339.738 398.185 339.738Z" fill="black"/>
<path d="M447.223 380.857C447.318 393.957 442.204 406.558 433.008 415.888C423.812 425.217 411.287 430.511 398.187 430.606C385.088 430.7 372.488 425.586 363.158 416.39C353.829 407.194 348.535 394.668 348.441 381.568C348.085 356.338 370.827 331.819 398.187 331.819C404.632 331.801 411.017 333.056 416.975 335.514C422.933 337.972 428.346 341.583 432.903 346.14C437.46 350.698 441.071 356.111 443.529 362.069C445.986 368.027 447.242 374.412 447.223 380.857Z" fill="#0090FF"/>
<path fill-rule="evenodd" clip-rule="evenodd" d="M416.663 336.271C410.805 333.855 404.527 332.62 398.19 332.638H398.188C371.292 332.638 348.911 356.776 349.26 381.557L349.26 381.562C349.353 394.445 354.559 406.763 363.734 415.807C372.908 424.851 385.3 429.88 398.182 429.787C411.064 429.694 423.382 424.487 432.425 415.313C441.469 406.138 446.497 393.746 446.405 380.863V380.859V380.855C446.423 374.518 445.189 368.24 442.772 362.381C440.356 356.523 436.805 351.201 432.324 346.72C427.843 342.239 422.521 338.688 416.663 336.271ZM398.186 331C404.739 330.981 411.23 332.258 417.288 334.757C423.345 337.256 428.849 340.928 433.483 345.561C438.116 350.195 441.788 355.699 444.286 361.757C446.785 367.813 448.061 374.304 448.043 380.855C448.137 394.171 442.94 406.979 433.592 416.463C424.243 425.947 411.51 431.33 398.194 431.426C384.877 431.521 372.068 426.323 362.584 416.974C353.1 407.625 347.718 394.893 347.622 381.577C347.262 355.9 370.363 331.001 398.186 331Z" fill="black"/>
<path fill-rule="evenodd" clip-rule="evenodd" d="M402.558 375.26L401.144 383.06L415.284 385.187L414.223 388.732L400.437 386.605C399.706 389.855 398.762 393.053 397.609 396.178C396.528 399.567 395.229 402.883 393.721 406.104C392.858 408.135 391.499 409.914 389.769 411.277C388.039 412.64 385.994 413.544 383.823 413.904C382.499 414.22 381.125 414.258 379.786 414.014C378.447 413.77 377.174 413.249 376.046 412.486C375.664 412.263 375.338 411.955 375.093 411.587C374.848 411.218 374.691 410.798 374.632 410.359C374.606 409.311 374.986 408.294 375.693 407.523C376.046 407.168 377.46 407.523 378.167 407.877C378.958 408.757 379.668 409.706 380.288 410.713C380.566 411.139 380.933 411.5 381.362 411.771C381.792 412.042 382.274 412.217 382.778 412.284C383.281 412.352 383.792 412.309 384.278 412.161C384.763 412.012 385.211 411.76 385.59 411.422C387.663 409.381 389.131 406.804 389.832 403.977C391.246 397.95 392.66 392.278 394.074 386.605V385.542L380.642 384.123L380.995 380.578L394.428 382.705L396.195 374.906L382.055 372.778L382.409 368.879L396.902 371.006C397.256 369.588 397.609 368.17 397.963 367.106C398.833 362.53 400.638 358.185 403.265 354.343C404.472 352.362 406.198 350.752 408.255 349.689C410.313 348.626 412.622 348.151 414.93 348.316C416.052 348.268 417.17 348.465 418.207 348.894C419.245 349.322 420.177 349.972 420.94 350.798C421.293 351.152 421.647 351.507 421.647 351.861C421.794 352.863 421.54 353.883 420.94 354.697C420.442 354.988 419.864 355.111 419.291 355.047C418.718 354.983 418.181 354.736 417.758 354.343C417.143 353.548 416.43 352.833 415.637 352.216C415.384 351.749 415.017 351.353 414.57 351.067C414.124 350.78 413.612 350.611 413.083 350.576C412.554 350.54 412.025 350.64 411.545 350.864C411.064 351.089 410.648 351.432 410.335 351.861C408.998 353.186 407.919 354.749 407.154 356.47C405.386 361.788 404.326 367.106 402.558 372.424L415.991 374.551L414.93 378.096L402.558 375.26Z" fill="white"/>
</g>
<g clip-path="url(#clip1_3859_609)">
<path d="M381.562 117.531L416.815 96.7451L451.779 117.531V160.258L416.815 180.755L381.562 160.258V117.531Z" fill="black"/>
<path fill-rule="evenodd" clip-rule="evenodd" d="M382.502 118.068V159.717L416.813 179.666L450.839 159.719V118.066L416.813 97.838L382.502 118.068ZM416.815 96.7451L381.562 117.531V160.258L416.815 180.755L451.779 160.258V117.531L416.815 96.7451Z" fill="black"/>
<mask id="mask0_3859_609" style="mask-type:luminance" maskUnits="userSpaceOnUse" x="381" y="91" width="71" height="84">
<path d="M451.779 91.416H381.562V174.799H451.779V91.416Z" fill="white"/>
</mask>
<g mask="url(#mask0_3859_609)">
<path d="M416.69 174.217L451.292 153.645V112.543L416.69 133.087V174.217Z" fill="#38787B"/>
<path d="M416.19 174.501V132.789L451.306 111.947L451.793 112.854V153.943L451.543 154.092L416.691 174.799L416.19 174.501ZM417.178 133.426V173.336L450.805 153.361V113.423L417.178 133.426Z" fill="black"/>
<path d="M416.691 174.217V133.074L382.076 112.543V153.645L416.691 174.217Z" fill="#43979A"/>
<path d="M416.691 174.812L416.217 174.542L381.589 153.943V112.258L382.102 111.974L417.178 132.776V174.501L416.691 174.812ZM382.576 153.361L416.191 173.336V133.426L382.576 113.423V153.361Z" fill="black"/>
<path d="M382.076 112.543L416.691 133.087L451.292 112.543L416.691 92.012L382.076 112.543Z" fill="#3F898C"/>
<path d="M416.69 133.669L416.44 133.52L381.588 112.84V112.245L416.69 91.4429L416.927 91.5918L451.766 112.231V112.84L416.69 133.669ZM383.063 112.543L416.69 132.491L450.305 112.543L416.69 92.594L383.063 112.543Z" fill="black"/>
<path d="M413.122 96.9414L387.987 111.852C388.05 112.301 388.05 112.757 387.987 113.206L413.083 128.103C414.114 127.319 415.362 126.896 416.644 126.896C417.926 126.896 419.175 127.319 420.206 128.103L445.302 113.206C445.25 112.756 445.25 112.302 445.302 111.852L420.245 96.9414C419.214 97.7255 417.966 98.1486 416.684 98.1486C415.402 98.1486 414.153 97.7255 413.122 96.9414Z" fill="#57AFB5"/>
<path d="M447.738 117.337L422.615 132.397C422.757 133.705 422.487 135.025 421.845 136.164C421.203 137.302 420.222 138.199 419.047 138.721V168.366C419.464 168.551 419.858 168.787 420.219 169.07L445.315 154.173C445.168 152.866 445.434 151.545 446.074 150.406C446.714 149.267 447.695 148.37 448.87 147.849V118.055C448.464 117.866 448.083 117.624 447.738 117.337Z" fill="#469DA1"/>
<path d="M385.644 117.513C385.27 117.776 384.879 118.012 384.472 118.217V148.011C385.637 148.542 386.606 149.443 387.239 150.58C387.871 151.718 388.133 153.034 387.988 154.336L413.083 169.233C413.456 168.969 413.848 168.733 414.255 168.528V138.734C413.083 138.208 412.105 137.311 411.463 136.174C410.821 135.036 410.549 133.718 410.687 132.41L385.644 117.513Z" fill="#69B6BF"/>
</g>
</g>
<g clip-path="url(#clip2_3859_609)">
<path d="M139.158 78.4546L146.911 105.815L163.532 78.4546V82.5909L156.342 110.1L182.539 93.6818V98.1638L162.333 118.45L191.085 116.636V121L163.276 128.629L186.881 140.5V144.982L158.921 137.908L171.053 159.364V163.683L150.434 143.802L147.842 172.091L140.089 144.731L123.468 167.955V163.682L130.658 140.446L104.461 152.382V148L124.667 132.095L95.915 129.545V125.046L123.723 121.917L100.119 105.564V101.182L128.078 112.637L115.947 86.8631V82.3182L136.566 106.744L139.158 78.4546Z" fill="black"/>
<path fill-rule="evenodd" clip-rule="evenodd" d="M139.074 77.5493C139.513 77.5091 139.919 77.7862 140.039 78.2082L147.219 103.548L162.749 77.9849C162.961 77.6354 163.382 77.4693 163.778 77.5788C164.173 77.6883 164.447 78.0464 164.447 78.4546V82.5909C164.447 82.668 164.437 82.7447 164.418 82.8194L157.809 108.106L182.05 92.913C182.332 92.7363 182.689 92.7259 182.98 92.8858C183.273 93.0457 183.454 93.3507 183.454 93.6819V98.1637C183.454 98.4032 183.359 98.633 183.189 98.8032L164.674 117.392L191.027 115.729C191.279 115.713 191.527 115.802 191.711 115.973C191.895 116.145 192 116.385 192 116.636V121.001C192 121.409 191.725 121.768 191.328 121.877L165.801 128.879L187.294 139.689C187.602 139.844 187.796 140.157 187.796 140.5V144.982C187.796 145.263 187.665 145.528 187.442 145.699C187.219 145.872 186.929 145.932 186.655 145.863L160.765 139.313L171.851 158.918C171.927 159.054 171.968 159.208 171.968 159.364V163.683C171.968 164.048 171.748 164.377 171.409 164.519C171.071 164.662 170.679 164.589 170.416 164.335L151.172 145.78L148.754 172.174C148.713 172.61 148.366 172.956 147.926 172.996C147.487 173.036 147.081 172.759 146.961 172.337L139.726 146.807L124.214 168.481C123.983 168.804 123.569 168.941 123.19 168.821C122.81 168.7 122.553 168.35 122.553 167.955V163.682C122.553 163.591 122.567 163.501 122.593 163.415L129.183 142.118L104.843 153.208C104.56 153.337 104.23 153.314 103.967 153.147C103.705 152.979 103.546 152.692 103.546 152.382V148C103.546 147.723 103.674 147.46 103.893 147.288L122.301 132.798L95.8337 130.451C95.3617 130.409 95 130.016 95 129.545V125.045C95 124.583 95.3495 124.194 95.8121 124.142L121.211 121.284L99.5957 106.309C99.3503 106.139 99.204 105.861 99.204 105.564V101.182C99.204 100.878 99.3564 100.595 99.6102 100.426C99.8639 100.258 100.186 100.226 100.468 100.341L126.253 110.906L115.118 87.2483C115.061 87.1277 115.032 86.9963 115.032 86.8632V82.3182C115.032 81.936 115.273 81.5946 115.634 81.4639C115.996 81.3332 116.401 81.4412 116.648 81.7341L135.854 104.485L138.246 78.3722C138.286 77.9356 138.634 77.5895 139.074 77.5493ZM136.566 106.744L115.947 82.3183V86.8632L128.078 112.637L100.119 101.182V105.564L123.723 121.917L95.9151 125.046V129.545L124.667 132.095L104.461 148V152.382L130.658 140.446L123.468 163.682V167.955L140.089 144.731L147.842 172.091L150.434 143.802L171.053 163.683V159.364L158.922 137.908L186.881 144.982V140.5L163.276 128.629L191.085 121.001V116.636L162.333 118.45L182.539 98.1638V93.6819L156.342 110.1L163.532 82.5909V78.4546L146.911 105.815L139.158 78.4546L136.566 106.744Z" fill="black"/>
<path d="M139.158 73.9092L146.911 101.269L163.532 78.0455L156.342 105.554L182.539 93.6183L162.333 113.905L191.085 116.455L163.276 124.083L186.881 140.437L158.921 133.363L171.053 159.137L150.434 139.257L147.842 167.545L140.089 140.185L123.468 163.409L130.658 135.9L104.461 147.836L124.667 127.55L95.915 125L123.723 117.371L100.119 101.018L128.078 108.092L115.947 82.3178L136.566 102.198L139.158 73.9092Z" fill="#E2BA36"/>
<path fill-rule="evenodd" clip-rule="evenodd" d="M139.074 73.0039C139.513 72.9637 139.919 73.2408 140.039 73.6628L147.274 99.1939L162.786 77.5187C163.042 77.1612 163.518 77.0362 163.919 77.2214C164.319 77.4067 164.529 77.8494 164.418 78.2739L157.712 103.93L182.157 92.792C182.559 92.6089 183.035 92.7374 183.289 93.0973C183.542 93.4572 183.5 93.9456 183.189 94.2577L164.35 113.171L191.166 115.55C191.607 115.589 191.957 115.935 191.996 116.373C192.036 116.811 191.755 117.214 191.329 117.331L165.398 124.445L187.404 139.691C187.767 139.942 187.897 140.415 187.713 140.815C187.529 141.214 187.083 141.426 186.655 141.317L160.569 134.718L171.882 158.752C172.069 159.149 171.944 159.623 171.584 159.877C171.224 160.132 170.732 160.095 170.416 159.789L151.172 141.235L148.754 167.628C148.714 168.065 148.366 168.41 147.926 168.451C147.487 168.491 147.081 168.214 146.961 167.792L139.726 142.261L124.214 163.936C123.958 164.294 123.482 164.419 123.082 164.233C122.681 164.048 122.471 163.605 122.582 163.181L129.288 137.525L104.843 148.663C104.441 148.846 103.965 148.717 103.712 148.357C103.458 147.997 103.5 147.509 103.811 147.197L122.649 128.284L95.8337 125.905C95.393 125.866 95.0436 125.519 95.0038 125.081C94.9639 124.644 95.2451 124.24 95.6716 124.123L121.602 117.01L99.5957 101.764C99.233 101.512 99.103 101.039 99.2871 100.64C99.4711 100.24 99.9164 100.029 100.345 100.137L126.43 106.737L115.118 82.7028C114.931 82.3053 115.056 81.8317 115.416 81.5772C115.776 81.3226 116.267 81.3597 116.584 81.6654L135.828 100.22L138.246 73.8267C138.286 73.3901 138.634 73.0441 139.074 73.0039ZM136.566 102.198L115.947 82.3177L128.078 108.092L100.119 101.018L123.723 117.371L95.9151 125L124.667 127.55L104.461 147.836L130.658 135.9L123.468 163.409L140.089 140.185L147.842 167.545L150.434 139.257L171.053 159.137L158.922 133.363L186.881 140.437L163.276 124.083L191.085 116.455L162.333 113.905L182.539 93.6183L156.342 105.554L163.532 78.0454L146.911 101.269L139.158 73.9091L136.566 102.198Z" fill="black"/>
</g>
<defs>
<clipPath id="clip0_3859_609">
<rect width="101.057" height="110" fill="white" transform="translate(347 331)"/>
</clipPath>
<clipPath id="clip1_3859_609">
<rect width="70.8511" height="90" fill="white" transform="translate(381 91)"/>
</clipPath>
<clipPath id="clip2_3859_609">
<rect width="97" height="100" fill="white" transform="translate(95 73)"/>
</clipPath>
</defs>
</svg>
