<svg width="192" height="61" viewBox="0 0 192 61" fill="none" xmlns="http://www.w3.org/2000/svg">
<g id="Logo" clip-path="url(#clip0_3690_3696)">
<path id="Vector" d="M79.7597 2.92798V5.48925H72.2816V28.3713H62.3112V5.47232L54.8335 5.48925V2.92798H79.7597Z" fill="#F5C32C"/>
<path id="Vector_2" fill-rule="evenodd" clip-rule="evenodd" d="M54.5692 2.65792C54.6392 2.58635 54.7342 2.54614 54.8336 2.54614H79.7598C79.9661 2.54614 80.1335 2.71702 80.1335 2.9278V5.48908C80.1335 5.69986 79.9661 5.87076 79.7598 5.87076H72.6558V28.3711C72.6558 28.5819 72.4885 28.7527 72.2817 28.7527H62.3112C62.1049 28.7527 61.9375 28.5819 61.9375 28.3711V5.85463L54.8344 5.87076C54.735 5.87096 54.6396 5.83087 54.5692 5.75925C54.4988 5.68766 54.4595 5.59048 54.4595 5.48908V2.9278C54.4595 2.82658 54.4988 2.7295 54.5692 2.65792ZM55.2073 3.30946V5.10656L62.3105 5.09047C62.4098 5.09023 62.5053 5.13036 62.5752 5.20194C62.6456 5.27357 62.6854 5.37075 62.6854 5.47215V27.9894H71.908V5.48908C71.908 5.2783 72.0754 5.10745 72.2817 5.10745H79.3857V3.30946H55.2073Z" fill="black"/>
<path id="Vector_3" d="M48.0989 15.6496H38.1282V28.3713H28.1577V2.92798H53.0841V5.47232H38.1282V13.1053H48.0989V15.6496Z" fill="#F5C32C"/>
<path id="Vector_4" fill-rule="evenodd" clip-rule="evenodd" d="M27.7832 2.9278C27.7832 2.71702 27.9506 2.54614 28.1571 2.54614H53.0835C53.2898 2.54614 53.4572 2.71702 53.4572 2.9278V5.47214C53.4572 5.68292 53.2898 5.85378 53.0835 5.85378H38.5015V12.7235H48.0983C48.3046 12.7235 48.472 12.8943 48.472 13.1051V15.6495C48.472 15.8602 48.3046 16.0311 48.0983 16.0311H38.5015V28.3711C38.5015 28.5819 38.3341 28.7528 38.1276 28.7528H28.1571C27.9506 28.7528 27.7832 28.5819 27.7832 28.3711V2.9278ZM28.531 3.30946V27.9894H37.7537V15.6495C37.7537 15.4386 37.9211 15.2678 38.1276 15.2678H47.7241V13.4868H38.1276C37.9211 13.4868 37.7537 13.3159 37.7537 13.1051V5.47214C37.7537 5.26136 37.9211 5.09047 38.1276 5.09047H52.7094V3.30946H28.531Z" fill="black"/>
<path id="Vector_5" d="M3.23432 13.1053V28.3713H0.741699V2.92798H3.23432L23.1753 18.194V2.92798H25.6679V28.3713H23.1753L3.23432 13.1053Z" fill="#F5C32C"/>
<path id="Vector_6" fill-rule="evenodd" clip-rule="evenodd" d="M0.367188 2.9278C0.367188 2.71702 0.53459 2.54614 0.741092 2.54614H3.23372C3.31462 2.54614 3.39334 2.57293 3.45806 2.62247L22.8008 17.4304V2.9278C22.8008 2.82658 22.8402 2.7295 22.9103 2.65792C22.9804 2.58635 23.0755 2.54614 23.1747 2.54614H25.6673C25.8738 2.54614 26.0412 2.71702 26.0412 2.9278V28.3711C26.0412 28.5819 25.8738 28.7528 25.6673 28.7528H23.1747C23.0938 28.7528 23.0151 28.726 22.9504 28.6764L3.60762 13.8684V28.3711C3.60762 28.5819 3.44021 28.7528 3.23372 28.7528H0.741092C0.53459 28.7528 0.367188 28.5819 0.367188 28.3711V2.9278ZM1.115 3.30946V27.9894H2.85981V13.1051C2.85981 12.9606 2.93983 12.8284 3.0665 12.7637C3.19317 12.6991 3.34476 12.7131 3.45806 12.7998L23.2993 27.9894H25.2934V3.30946H23.5486V18.1938C23.5486 18.3383 23.4686 18.4705 23.3419 18.5351C23.2152 18.5998 23.0636 18.5858 22.9504 18.4991L3.10908 3.30946H1.115Z" fill="black"/>
<path id="Vector_7" d="M52.8388 33.4592V36.0205H45.3611V58.9024H35.3905V36.0036L27.9126 36.0205V33.4592H52.8388Z" fill="#F5C32C"/>
<path id="Vector_8" fill-rule="evenodd" clip-rule="evenodd" d="M27.6476 33.1896C27.7177 33.1181 27.8128 33.0779 27.912 33.0779H52.8382C53.0449 33.0779 53.2123 33.2487 53.2123 33.4595V36.0208C53.2123 36.2316 53.0449 36.4025 52.8382 36.4025H45.7342V58.9027C45.7342 59.1134 45.5668 59.2843 45.3605 59.2843H35.3898C35.1833 59.2843 35.0159 59.1134 35.0159 58.9027V36.3864L27.9128 36.4025C27.8135 36.4027 27.7182 36.3626 27.6479 36.291C27.5776 36.2194 27.5381 36.1222 27.5381 36.0208V33.4595C27.5381 33.3583 27.5774 33.2612 27.6476 33.1896ZM28.2859 33.8412V35.6383L35.389 35.6222C35.4883 35.622 35.5836 35.6621 35.6539 35.7337C35.7242 35.8053 35.7637 35.9025 35.7637 36.0038V58.5211H44.9864V36.0208C44.9864 35.81 45.1538 35.6391 45.3605 35.6391H52.4644V33.8412H28.2859Z" fill="black"/>
<path id="Vector_9" d="M186.642 46.181H176.671V56.3581H191.627V58.9024H166.7V33.4592H191.627V36.0036H176.671V43.6366H186.642V46.181Z" fill="#F5C32C"/>
<path id="Vector_10" fill-rule="evenodd" clip-rule="evenodd" d="M166.326 33.4595C166.326 33.2487 166.494 33.0779 166.7 33.0779H191.626C191.833 33.0779 192 33.2487 192 33.4595V36.0038C192 36.2146 191.833 36.3855 191.626 36.3855H177.044V43.2553H186.641C186.848 43.2553 187.015 43.4259 187.015 43.6369V46.1813C187.015 46.3919 186.848 46.5629 186.641 46.5629H177.044V55.9768H191.626C191.833 55.9768 192 56.1477 192 56.3584V58.9027C192 59.1138 191.833 59.2843 191.626 59.2843H166.7C166.494 59.2843 166.326 59.1138 166.326 58.9027V33.4595ZM167.074 33.8412V58.5211H191.252V56.74H176.67C176.464 56.74 176.297 56.5694 176.297 56.3584V46.1813C176.297 45.9702 176.464 45.7997 176.67 45.7997H186.267V44.0185H176.67C176.464 44.0185 176.297 43.8476 176.297 43.6369V36.0038C176.297 35.7931 176.464 35.6222 176.67 35.6222H191.252V33.8412H167.074Z" fill="black"/>
<path id="Vector_11" d="M151.714 46.181V43.6366H164.202V53.1356C164.202 53.9044 163.985 54.6395 163.552 55.3405C163.153 56.0415 162.57 56.6522 161.804 57.1722C161.072 57.6927 160.189 58.1108 159.157 58.4278C158.124 58.7443 156.976 58.9024 155.71 58.9024H147.718C146.519 58.9024 145.403 58.7556 144.371 58.4615C143.372 58.1449 142.49 57.7264 141.723 57.2063C140.958 56.6863 140.358 56.0756 139.925 55.3746C139.492 54.6732 139.276 53.9269 139.276 53.1356V39.2264C139.276 38.5027 139.492 37.8015 139.925 37.1231C140.358 36.4219 140.958 35.8 141.723 35.2572C142.49 34.7144 143.388 34.2847 144.421 33.9681C145.453 33.6289 146.552 33.4592 147.718 33.4592H155.66C156.759 33.4592 157.825 33.6289 158.857 33.9681C159.89 34.2847 160.805 34.7144 161.604 35.2572C162.404 35.7774 163.036 36.388 163.503 37.0892C163.969 37.7676 164.202 38.5479 164.202 38.5479H159.217C159.217 37.6206 158.317 36.7669 158.317 36.7669C158.317 36.7669 157.667 35.9866 156.635 35.9866H146.754V56.3581H156.724V46.181H151.714Z" fill="#F5C32C"/>
<path id="Vector_12" fill-rule="evenodd" clip-rule="evenodd" d="M147.717 33.8407C146.588 33.8407 145.528 34.005 144.535 34.3312L144.528 34.3334C143.528 34.6402 142.665 35.0539 141.936 35.5706C141.205 36.0884 140.644 36.6746 140.241 37.3264L140.238 37.3312C139.84 37.9553 139.649 38.585 139.649 39.2262V53.1354C139.649 53.8512 139.844 54.5273 140.241 55.1706C140.642 55.8206 141.202 56.394 141.93 56.8883C142.661 57.3847 143.509 57.788 144.476 58.0953C145.471 58.3778 146.55 58.5206 147.717 58.5206H155.71C156.945 58.5206 158.057 58.3662 159.049 58.062C160.051 57.7547 160.896 57.3518 161.59 56.859C161.592 56.8574 161.595 56.8558 161.597 56.8542C162.323 56.3615 162.862 55.7917 163.229 55.1485C163.231 55.1445 163.234 55.1405 163.236 55.1368C163.634 54.4916 163.828 53.8263 163.828 53.1354V44.018H152.087V45.7992H156.724C156.93 45.7992 157.098 45.9697 157.098 46.1808V56.3579C157.098 56.5689 156.93 56.7395 156.724 56.7395H146.753C146.547 56.7395 146.379 56.5689 146.379 56.3579V35.9864C146.379 35.7756 146.547 35.6048 146.753 35.6048H156.634C157.244 35.6048 157.736 35.8354 158.067 36.0573C158.234 36.1687 158.364 36.2803 158.454 36.3651C158.499 36.4077 158.534 36.4439 158.558 36.4706C158.57 36.4831 158.58 36.4936 158.587 36.5016C158.595 36.5097 158.607 36.5212 158.62 36.5356C158.649 36.5644 158.688 36.6056 158.734 36.6576C158.826 36.7613 158.95 36.91 159.074 37.0913C159.26 37.364 159.468 37.7403 159.552 38.1661H163.659C163.549 37.9098 163.394 37.5965 163.196 37.3081L163.193 37.3033C162.759 36.6508 162.165 36.075 161.403 35.5788L161.397 35.5748C160.632 35.0552 159.75 34.6405 158.749 34.3334L158.742 34.3312C157.747 34.0043 156.72 33.8407 155.66 33.8407H147.717ZM164.202 38.5477L164.559 38.4364C164.594 38.5521 164.573 38.6776 164.502 38.7748C164.431 38.872 164.32 38.9294 164.202 38.9294H159.216C159.01 38.9294 158.842 38.7585 158.842 38.5477C158.842 38.2008 158.669 37.8345 158.46 37.5276C158.359 37.3796 158.257 37.2569 158.181 37.1715C158.143 37.129 158.112 37.0962 158.091 37.0747C158.081 37.064 158.073 37.0561 158.068 37.0513L158.063 37.0463C158.063 37.0463 158.063 37.0461 158.317 36.7667C158.032 37.0141 158.033 37.0143 158.033 37.0143L158.031 37.0126C158.028 37.0095 158.023 37.0037 158.016 36.9957C158.001 36.9797 157.977 36.9549 157.945 36.9244C157.88 36.8629 157.783 36.7794 157.658 36.6958C157.406 36.5275 157.056 36.3681 156.634 36.3681H147.127V35.9864H146.753V36.3681H147.127V55.9763H146.753V56.3579H147.127V55.9763H156.35V56.3579H156.724V55.9763H156.35V46.5624H156.724V46.1808H156.35V46.5624H151.713C151.507 46.5624 151.34 46.3915 151.34 46.1808V43.6364C151.34 43.4254 151.507 43.2548 151.713 43.2548H164.202C164.408 43.2548 164.575 43.4254 164.575 43.6364V53.1354C164.575 53.9796 164.337 54.7825 163.872 55.5381C163.873 55.5361 163.874 55.5341 163.875 55.5321L163.552 55.3403L163.869 55.5437C163.87 55.5417 163.871 55.5401 163.872 55.5381C163.44 56.2937 162.817 56.9421 162.014 57.4878L162.017 57.4854L161.804 57.172L162.011 57.4898L162.014 57.4878C161.244 58.0339 160.325 58.4673 159.264 58.7927C158.191 59.1217 157.006 59.2838 155.71 59.2838H147.717C146.488 59.2838 145.339 59.1334 144.27 58.8288C144.267 58.828 144.263 58.8268 144.26 58.8256C143.231 58.4998 142.315 58.0668 141.516 57.5239C140.712 56.9778 140.073 56.3302 139.608 55.5778C139.14 54.8187 138.901 54.0021 138.901 53.1354V39.2262C138.901 38.4208 139.143 37.6491 139.61 36.917L139.608 36.9193L139.925 37.1229L139.611 36.9146L139.61 36.917C140.073 36.1675 140.71 35.5106 141.51 34.9435C142.312 34.3752 143.246 33.9298 144.309 33.6034L144.306 33.6046L144.421 33.9679L144.313 33.6024L144.309 33.6034C145.38 33.2519 146.517 33.0774 147.717 33.0774H155.66C156.796 33.0774 157.899 33.2527 158.968 33.6035C160.028 33.9291 160.977 34.3728 161.808 34.9372C162.642 35.4804 163.312 36.1243 163.81 36.8722C164.063 37.2401 164.249 37.6299 164.371 37.9235C164.433 38.0716 164.479 38.1976 164.51 38.2874C164.526 38.3324 164.538 38.3685 164.546 38.3938C164.55 38.4065 164.553 38.4166 164.556 38.4237L164.558 38.4323L164.559 38.4364C164.559 38.4364 164.559 38.4364 164.202 38.5477ZM158.317 36.7667L158.033 37.0143L158.034 37.0154C158.043 37.0261 158.053 37.0367 158.063 37.0463" fill="black"/>
<path id="Vector_13" d="M120.388 33.4592C120.388 33.4592 122.963 33.4592 128.112 33.4592C129.115 33.4592 130.135 33.6173 131.171 33.9336C132.208 34.2497 133.127 34.6789 133.93 35.2209C134.766 35.7405 135.451 36.3502 135.986 37.0504C136.521 37.728 136.788 38.4395 136.788 39.1848V58.8687C136.421 58.8687 135.819 58.8687 134.983 58.8687C134.181 58.8912 133.328 58.9024 132.425 58.9024C131.556 58.9024 130.737 58.9024 129.968 58.9024C129.199 58.9024 129.578 58.8912 129.311 58.8687V46.181H119.34V58.8687H111.862V39.1848C111.862 38.4395 112.113 37.7167 112.615 37.0166C113.15 36.3164 113.818 35.7065 114.621 35.1871C115.457 34.6676 116.376 34.2497 117.379 33.9336C118.416 33.6173 119.419 33.4592 120.388 33.4592ZM119.34 43.6366H129.311V36.0036H119.34V43.6366Z" fill="#F5C32C"/>
<path id="Vector_14" fill-rule="evenodd" clip-rule="evenodd" d="M117.487 34.2985C116.513 34.6057 115.624 35.0102 114.818 35.5111C114.051 36.0077 113.417 36.5865 112.912 37.2464C112.452 37.8907 112.235 38.5346 112.235 39.1846V58.4869H118.965V46.1808C118.965 45.9697 119.133 45.7992 119.34 45.7992H129.31C129.516 45.7992 129.684 45.9697 129.684 46.1808V58.5198C129.753 58.5202 129.845 58.5206 129.967 58.5206H132.424C133.324 58.5206 134.173 58.5094 134.972 58.4869C134.974 58.4869 134.976 58.4869 134.978 58.4869C134.979 58.4869 134.981 58.4869 134.982 58.4869H136.414V39.1846C136.414 38.5405 136.185 37.9114 135.694 37.2897L135.69 37.2849C135.187 36.6254 134.537 36.0452 133.735 35.5467C133.731 35.5442 133.727 35.5417 133.723 35.539C132.954 35.02 132.069 34.6058 131.063 34.299C130.059 33.9926 129.075 33.8407 128.111 33.8407H120.388C120.388 33.8407 120.388 33.8407 120.388 33.459C120.388 33.0774 120.388 33.0774 120.388 33.0774H128.111C129.153 33.0774 130.209 33.2417 131.278 33.5676C132.342 33.8925 133.294 34.3353 134.129 34.8985C134.995 35.4376 135.714 36.0751 136.278 36.8131C136.856 37.546 137.162 38.3389 137.162 39.1846V58.8685C137.162 59.0792 136.994 59.2501 136.788 59.2501H134.987C134.183 59.2726 133.328 59.2838 132.424 59.2838H129.967C129.774 59.2838 129.651 59.2834 129.571 59.2818C129.499 59.2806 129.439 59.2786 129.392 59.2706C129.365 59.2666 129.341 59.2602 129.318 59.2525C129.31 59.2517 129.297 59.2505 129.279 59.2489C129.085 59.2325 128.936 59.0672 128.936 58.8685V46.5624H119.713V58.8685C119.713 59.0792 119.546 59.2501 119.34 59.2501H111.862C111.655 59.2501 111.488 59.0792 111.488 58.8685V39.1846C111.488 38.3456 111.772 37.5455 112.312 36.7911C112.314 36.7879 112.317 36.7848 112.319 36.7816C112.882 36.0439 113.584 35.4053 114.42 34.8646L114.426 34.8609C115.289 34.3239 116.238 33.8935 117.268 33.5687L117.271 33.5676C118.338 33.2421 119.378 33.0774 120.388 33.0774V33.459V33.8407C119.459 33.8407 118.492 33.9921 117.487 34.2985ZM118.965 36.0034C118.965 35.7926 119.133 35.6217 119.34 35.6217H129.31C129.516 35.6217 129.684 35.7926 129.684 36.0034V43.6364C129.684 43.8471 129.516 44.018 129.31 44.018H119.34C119.133 44.018 118.965 43.8471 118.965 43.6364V36.0034ZM119.713 36.385V43.2548H128.936V36.385H119.713Z" fill="black"/>
<path id="Vector_15" d="M91.9181 43.6366H101.889V36.0036H91.9181V43.6366ZM84.4404 58.9024V33.4592H101.889C103.154 33.4592 103.472 33.5949 104.471 33.8663C105.504 34.1377 106.386 34.5222 107.119 35.0198C107.851 35.5173 108.401 36.1166 108.767 36.8177C109.167 37.5189 109.367 38.2878 109.367 39.1246V41.5673C109.367 42.5396 109.134 43.3313 108.667 43.942C108.201 44.5298 107.685 44.9937 107.119 45.3327C106.586 45.6493 106.087 45.8644 105.62 45.9772C105.154 46.0903 104.921 46.1469 104.921 46.1469C104.921 46.1469 105.154 46.2259 105.62 46.3844C106.087 46.5201 106.586 46.7801 107.119 47.1649C107.685 47.5264 108.201 48.024 108.667 48.6576C109.134 49.2679 109.367 50.0595 109.367 51.0322V58.9024H101.889V46.5201H91.9181V58.9024H84.4404Z" fill="#F5C32C"/>
<path id="Vector_16" fill-rule="evenodd" clip-rule="evenodd" d="M84.0659 33.459C84.0659 33.2482 84.2333 33.0774 84.44 33.0774H101.888C102.535 33.0774 102.955 33.112 103.347 33.1854C103.641 33.2403 103.918 33.3175 104.251 33.41C104.35 33.4376 104.455 33.4667 104.565 33.4969C105.629 33.7768 106.552 34.1764 107.325 34.7018C108.101 35.2283 108.694 35.8707 109.093 36.6317C109.525 37.3914 109.74 38.2248 109.74 39.1244V41.5671C109.74 42.6024 109.491 43.4831 108.962 44.1761L108.958 44.1817C108.466 44.8009 107.917 45.2964 107.308 45.6616L107.306 45.6624C106.93 45.8859 106.564 46.0644 106.209 46.1948C106.572 46.3533 106.945 46.5724 107.326 46.8469C107.932 47.2361 108.477 47.765 108.964 48.4254C109.492 49.118 109.74 49.998 109.74 51.032V58.9022C109.74 59.1133 109.573 59.2838 109.366 59.2838H101.888C101.682 59.2838 101.514 59.1133 101.514 58.9022V46.9015H92.2918V58.9022C92.2918 59.1133 92.1244 59.2838 91.9177 59.2838H84.44C84.2333 59.2838 84.0659 59.1133 84.0659 58.9022V33.459ZM104.834 45.7755L105.533 45.6058C105.955 45.5035 106.42 45.3057 106.929 45.0031C107.451 44.6905 107.933 44.2596 108.374 43.7042C108.776 43.1766 108.992 42.4752 108.992 41.5671V39.1244C108.992 38.3528 108.809 37.6504 108.443 37.0095C108.442 37.0062 108.44 37.0029 108.438 36.9996L108.437 36.9972C108.103 36.3587 107.599 35.8045 106.911 35.3373C106.22 34.8678 105.378 34.4986 104.377 34.2357L104.375 34.2349C104.249 34.2009 104.136 34.1695 104.033 34.1406C103.709 34.0508 103.472 33.9848 103.212 33.9362C102.879 33.8739 102.508 33.8407 101.888 33.8407H84.8138V58.5206H91.544V46.5199C91.544 46.3092 91.7114 46.1383 91.9177 46.1383H101.888C102.095 46.1383 102.262 46.3092 102.262 46.5199V58.5206H108.992V51.032C108.992 50.1223 108.775 49.4197 108.372 48.8917L108.368 48.8865C107.925 48.2846 107.442 47.8211 106.92 47.4881C106.914 47.4841 106.908 47.4801 106.902 47.4761C106.393 47.1085 105.932 46.8718 105.517 46.7514C105.512 46.7498 105.507 46.7482 105.502 46.7466L104.802 46.509C104.644 46.4553 104.54 46.3004 104.547 46.1298C104.554 45.9597 104.672 45.8149 104.834 45.7755ZM91.544 36.0034C91.544 35.7926 91.7114 35.6217 91.9177 35.6217H101.888C102.095 35.6217 102.262 35.7926 102.262 36.0034V43.6364C102.262 43.8471 102.095 44.018 101.888 44.018H91.9177C91.7114 44.018 91.544 43.8471 91.544 43.6364V36.0034ZM92.2918 36.385V43.2548H101.514V36.385H92.2918Z" fill="black"/>
<path id="Vector_17" d="M159.217 36.0042L159.218 38.5481H164.203L164.203 36.0042H159.217Z" fill="#F5C32C"/>
<path id="Vector_18" fill-rule="evenodd" clip-rule="evenodd" d="M158.843 36.004C158.843 35.7932 159.01 35.6223 159.216 35.6223H164.202C164.408 35.6223 164.576 35.7932 164.576 36.004V38.5483C164.576 38.7591 164.409 38.9296 164.203 38.9296H159.217C159.011 38.9296 158.843 38.7587 158.843 38.5479L158.843 36.004ZM159.591 36.3856V38.1666H163.828V36.3856H159.591Z" fill="black"/>
<path id="Vector_19" d="M0.741699 39.193V41.2283C0.741699 41.839 1.10208 42.4722 1.82284 43.1282C2.58364 43.7614 3.5046 44.4058 4.58573 45.0619C5.70694 45.7176 6.90818 46.3736 8.18954 47.0297C9.51093 47.6628 10.7122 48.2736 11.7933 48.8614C12.9145 49.4492 13.8355 50.015 14.5562 50.5575C15.317 51.0779 15.6975 51.5414 15.6975 51.9487V56.3589H11.1326C9.53097 56.3589 8.22957 56.0872 7.22851 55.5443C6.26752 55.0018 5.72694 52.1296 5.72694 51.2701H0.741699V53.8145C0.741699 53.8145 1.00197 54.7077 1.52252 55.4087C2.08311 56.0872 2.82389 56.6867 3.74486 57.2067C4.70588 57.7272 5.80705 58.1453 7.04833 58.4619C8.32968 58.756 9.69111 58.9029 11.1326 58.9029H15.337C16.8587 58.9029 18.2401 58.756 19.4814 58.4619C20.7628 58.1453 21.8439 57.7272 22.7248 57.2067C23.6458 56.6638 24.3465 56.0535 24.827 55.375C25.3476 54.6736 25.6078 53.9389 25.6078 53.1697V51.1004C25.6078 50.4219 25.2275 49.7321 24.4667 49.0311C23.7459 48.3073 22.825 47.6063 21.7037 46.9277C20.6226 46.2268 19.4414 45.5482 18.16 44.8922C16.8787 44.2365 15.6774 43.6258 14.5562 43.0604C13.4751 42.4722 12.5541 41.9409 11.7933 41.4658C11.0726 40.9911 10.7122 40.5839 10.7122 40.2448V35.9871H14.6763C16.5984 35.9871 18.0799 36.2472 19.121 36.7674C20.2022 37.2649 20.6827 37.6437 20.6827 38.5484H25.6679C25.6679 37.0941 23.7124 35.7295 22.6047 35.156C21.6837 34.6358 20.6026 34.2287 19.3613 33.9347C18.12 33.6181 16.7986 33.4597 15.3971 33.4597H11.1326C9.69111 33.4597 8.32968 33.6067 7.04833 33.9007C5.80705 34.1948 4.70588 34.6019 3.74486 35.122C2.82389 35.6422 2.08311 36.2529 1.52252 36.9539C1.00197 37.6324 0.741699 38.3788 0.741699 39.193Z" fill="#F5C32C"/>
<path id="Vector_20" fill-rule="evenodd" clip-rule="evenodd" d="M7.13101 34.2729C5.9178 34.5603 4.84935 34.9563 3.92237 35.4577C3.03814 35.9575 2.33856 36.5372 1.81398 37.1923C1.34329 37.807 1.115 38.4705 1.115 39.193V41.2283C1.115 41.6773 1.38059 42.2134 2.06496 42.8378C2.80635 43.4541 3.70836 44.0861 4.77361 44.7321C5.8862 45.3829 7.07901 46.0342 8.35221 46.6862C9.67555 47.3206 10.8803 47.9329 11.9661 48.5232C13.094 49.115 14.0305 49.6888 14.7708 50.2454C15.1631 50.5142 15.4778 50.7819 15.6982 51.0503C15.9183 51.3187 16.0707 51.6209 16.0707 51.9487V56.3589C16.0707 56.5696 15.9033 56.7405 15.6968 56.7405H11.132C9.49295 56.7405 8.12524 56.4633 7.05249 55.8814L7.04689 55.8786C6.7095 55.688 6.4531 55.3253 6.25726 54.9469C6.05548 54.5569 5.88946 54.0934 5.75782 53.6328C5.55402 52.9198 5.42159 52.1726 5.37312 51.6518H1.115V53.7556C1.12194 53.7768 1.13119 53.8049 1.14273 53.8386C1.17302 53.9269 1.21886 54.0525 1.28015 54.199C1.40294 54.4923 1.58217 54.8562 1.81411 55.1704C2.33856 55.8032 3.03809 56.3714 3.92236 56.8713C4.85062 57.3733 5.92019 57.7806 7.13403 58.0908C8.38478 58.3772 9.71706 58.5213 11.132 58.5213H15.3364C16.8342 58.5213 18.1861 58.3768 19.3945 58.0908C20.65 57.7802 21.695 57.3737 22.537 56.8765C23.4253 56.3529 24.0815 55.7755 24.5234 55.1515C24.5251 55.1491 24.5267 55.1467 24.5284 55.1443C25.0071 54.4995 25.2334 53.8438 25.2334 53.1697V51.1005C25.2334 50.5768 24.94 49.9822 24.2155 49.3145C24.2115 49.3109 24.2076 49.3068 24.2039 49.3032C23.5098 48.6062 22.6147 47.9229 21.5125 47.256C21.5092 47.254 21.5059 47.252 21.5026 47.25C20.4333 46.5566 19.2632 45.8841 17.9918 45.2333C16.711 44.578 15.5105 43.9677 14.39 43.4027C14.3866 43.4007 14.3832 43.3991 14.3798 43.3971C13.2944 42.8069 12.3666 42.2716 11.5976 41.7917C11.5961 41.7905 11.5947 41.7897 11.5932 41.7889L11.5899 41.7865C11.2163 41.5405 10.9157 41.299 10.7044 41.0602C10.4983 40.8275 10.3377 40.5522 10.3377 40.2449V35.9872C10.3377 35.7764 10.5051 35.6055 10.7116 35.6055H14.6757C16.6187 35.6055 18.1645 35.8665 19.2794 36.4219C19.8182 36.6701 20.2668 36.9135 20.5757 37.2402C20.8251 37.504 20.9704 37.8066 21.0276 38.1668H25.2374C25.1095 37.718 24.7705 37.2507 24.2967 36.8016C23.7016 36.2376 22.9672 35.772 22.435 35.4964C22.4309 35.4943 22.427 35.4922 22.4231 35.49C21.538 34.99 20.4906 34.5942 19.2762 34.3065L19.27 34.305C18.061 33.9966 16.7703 33.8414 15.3965 33.8414H11.132C9.71591 33.8414 8.38259 33.9858 7.13101 34.2729ZM0.741091 53.8146L0.3827 53.9233C0.372413 53.888 0.367188 53.8511 0.367188 53.8146V51.2702C0.367188 51.0591 0.53459 50.8886 0.741091 50.8886H5.72633C5.93283 50.8886 6.10025 51.0591 6.10025 51.2702C6.10025 51.6522 6.22656 52.5474 6.47568 53.4193C6.59933 53.8519 6.74862 54.262 6.91847 54.5902C7.09328 54.928 7.26388 55.1275 7.40649 55.2093C8.33552 55.7121 9.56952 55.9769 11.132 55.9769H15.3229V51.9487C15.3229 51.8693 15.2852 51.736 15.1249 51.5406C14.9662 51.3472 14.7127 51.1245 14.3475 50.8749C14.3428 50.8717 14.3382 50.8681 14.3337 50.8649C13.6341 50.3381 12.7317 49.7831 11.6219 49.2009L11.6169 49.1981C10.5422 48.6139 9.34676 48.006 8.03002 47.3752C8.02711 47.3736 8.02421 47.372 8.02131 47.3708C6.73443 46.7119 5.52702 46.0526 4.39921 45.393L4.39412 45.3902C3.30129 44.7269 2.36434 44.072 1.58594 43.424C1.58169 43.4204 1.57751 43.4168 1.57342 43.4132C0.82078 42.7282 0.367188 41.9995 0.367188 41.2283V39.193C0.367188 38.2883 0.658691 37.4601 1.22754 36.7187C1.22908 36.7166 1.23066 36.7146 1.23224 36.7127C1.82801 35.9676 2.60824 35.3275 3.56322 34.7881L3.56908 34.7849C4.56309 34.2468 5.6956 33.8293 6.96319 33.529L6.96574 33.5284C8.27644 33.2277 9.66558 33.0781 11.132 33.0781H15.3965C16.8245 33.0781 18.1755 33.2393 19.4483 33.5636C20.7126 33.8634 21.8245 34.2803 22.7793 34.8187C23.3542 35.117 24.1482 35.6192 24.8055 36.2422C25.4501 36.8533 26.0412 37.6543 26.0412 38.5484C26.0412 38.7592 25.8738 38.9301 25.6673 38.9301H20.6821C20.4756 38.9301 20.3082 38.7592 20.3082 38.5484C20.3082 38.1787 20.2153 37.9582 20.0376 37.7703C19.837 37.5581 19.5068 37.3639 18.9668 37.1153C18.9631 37.1137 18.9596 37.112 18.956 37.1102C17.9892 36.6271 16.5737 36.3688 14.6757 36.3688H11.0855V40.2449C11.0855 40.2761 11.105 40.3741 11.2593 40.5486C11.4079 40.7163 11.6467 40.915 11.9918 41.1429C12.7425 41.6111 13.6536 42.1372 14.7264 42.7206C15.8468 43.286 17.0471 43.8959 18.327 44.5511C19.6164 45.2112 20.8072 45.8949 21.8988 46.6024C23.0338 47.2897 23.9771 48.006 24.7226 48.7531C25.516 49.4862 25.9812 50.269 25.9812 51.1005V53.1697C25.9812 54.0324 25.6877 54.8454 25.127 55.6022C24.608 56.3336 23.8633 56.9761 22.9112 57.5374C21.9917 58.0803 20.8751 58.5101 19.5688 58.8331L19.5653 58.8339C18.2916 59.1356 16.8812 59.2849 15.3364 59.2849H11.132C9.66558 59.2849 8.27644 59.1352 6.96574 58.8343C6.96284 58.8339 6.95993 58.8331 6.95707 58.8323C5.69138 58.5097 4.56107 58.0811 3.56908 57.5438L3.56322 57.5406C2.61053 57.0025 1.83154 56.3758 1.23609 55.6547C1.2319 55.6499 1.22784 55.6447 1.22392 55.6395C0.938125 55.2543 0.728903 54.8245 0.59245 54.4987C0.523595 54.3342 0.471838 54.1925 0.437053 54.0914C0.419637 54.0405 0.406412 53.9999 0.397367 53.971C0.392843 53.9566 0.38936 53.9454 0.386917 53.9373L0.38403 53.9277L0.383171 53.9249L0.3827 53.9233C0.3827 53.9233 0.3827 53.9233 0.741091 53.8146Z" fill="black"/>
<path id="Vector_21" d="M20.6802 36.0042V38.5485H25.6654V36.0042H20.6802Z" fill="#F5C32C"/>
<path id="Vector_22" fill-rule="evenodd" clip-rule="evenodd" d="M20.3062 36.004C20.3062 35.7932 20.4736 35.6223 20.6801 35.6223H25.6653C25.8718 35.6223 26.0392 35.7932 26.0392 36.004V38.5483C26.0392 38.7591 25.8718 38.93 25.6653 38.93H20.6801C20.4736 38.93 20.3062 38.7591 20.3062 38.5483V36.004ZM21.054 36.3856V38.1666H25.2914V36.3856H21.054Z" fill="black"/>
<path id="Vector_23" d="M74.7725 23.2822H79.7577V28.3709H74.7725V23.2822Z" fill="#F5C32C"/>
<path id="Vector_24" fill-rule="evenodd" clip-rule="evenodd" d="M74.3979 23.2823C74.3979 23.0715 74.5653 22.9006 74.7717 22.9006H79.7569C79.9637 22.9006 80.131 23.0715 80.131 23.2823V28.3709C80.131 28.5817 79.9637 28.7526 79.7569 28.7526H74.7717C74.5653 28.7526 74.3979 28.5817 74.3979 28.3709V23.2823ZM75.1458 23.6639V27.9893H79.3832V23.6639H75.1458Z" fill="black"/>
<path id="Vector_25" d="M79.7597 0.381592V2.94288H72.2816V25.8249H62.3112V2.92592L54.8335 2.94288V0.381592H79.7597Z" fill="white"/>
<path id="Vector_26" fill-rule="evenodd" clip-rule="evenodd" d="M54.5692 0.111786C54.6392 0.0402104 54.7342 0 54.8336 0H79.7598C79.9661 0 80.1335 0.170875 80.1335 0.38166V2.94295C80.1335 3.15373 79.9661 3.32461 79.7598 3.32461H72.6558V25.8249C72.6558 26.0357 72.4885 26.2066 72.2817 26.2066H62.3113C62.1049 26.2066 61.9375 26.0357 61.9375 25.8249V3.3085L54.8344 3.32461C54.735 3.32483 54.6396 3.28472 54.5692 3.21312C54.4992 3.14153 54.4595 3.04432 54.4595 2.94295V0.38166C54.4595 0.280438 54.4988 0.183361 54.5692 0.111786ZM55.2073 0.763319V2.56044L62.3105 2.54433C62.4099 2.5441 62.5053 2.58421 62.5752 2.65581C62.6456 2.72741 62.6854 2.82462 62.6854 2.92599V25.4433H71.908V2.94295C71.908 2.73217 72.0754 2.56129 72.2817 2.56129H79.3857V0.763319H55.2073Z" fill="black"/>
<path id="Vector_27" d="M48.0989 13.1033H38.1282V25.8249H28.1577V0.381592H53.0841V2.92592H38.1282V10.5589H48.0989V13.1033Z" fill="white"/>
<path id="Vector_28" fill-rule="evenodd" clip-rule="evenodd" d="M27.7832 0.38166C27.7832 0.170875 27.9506 0 28.1571 0H53.0835C53.2898 0 53.4572 0.170875 53.4572 0.38166V2.92599C53.4572 3.13677 53.2898 3.30765 53.0835 3.30765H38.5015V10.1773H48.0983C48.3046 10.1773 48.472 10.3482 48.472 10.559V13.1033C48.472 13.3141 48.3046 13.485 48.0983 13.485H38.5015V25.825C38.5015 26.0358 38.3341 26.2066 38.1276 26.2066H28.1571C27.9506 26.2066 27.7832 26.0358 27.7832 25.825V0.38166ZM28.531 0.763319V25.4433H37.7537V13.1033C37.7537 12.8925 37.9211 12.7216 38.1276 12.7216H47.7241V10.9406H38.1276C37.9211 10.9406 37.7537 10.7698 37.7537 10.559V2.92599C37.7537 2.71521 37.9211 2.54433 38.1276 2.54433H52.7094V0.763319H28.531Z" fill="black"/>
<path id="Vector_29" d="M3.23432 10.5589V25.8249H0.741699V0.381592H3.23432L23.1753 15.6476V0.381592H25.6679V25.8249H23.1753L3.23432 10.5589Z" fill="white"/>
<path id="Vector_30" fill-rule="evenodd" clip-rule="evenodd" d="M0.367188 0.38166C0.367188 0.170875 0.53459 0 0.741092 0H3.23371C3.31462 0 3.39334 0.0267841 3.45806 0.076332L22.8008 14.8843V0.38166C22.8008 0.280438 22.8402 0.183361 22.9103 0.111786C22.9804 0.0402105 23.0755 0 23.1747 0H25.6673C25.8738 0 26.0412 0.170875 26.0412 0.38166V25.825C26.0412 26.0358 25.8738 26.2066 25.6673 26.2066H23.1747C23.0938 26.2066 23.0151 26.1798 22.9504 26.1303L3.60762 11.3223V25.825C3.60762 26.0358 3.44021 26.2066 3.23371 26.2066H0.741092C0.53459 26.2066 0.367188 26.0358 0.367188 25.825V0.38166ZM1.115 0.763319V25.4433H2.85981V10.559C2.85981 10.4144 2.93983 10.2822 3.0665 10.2176C3.19317 10.153 3.34476 10.1669 3.45806 10.2536L23.2993 25.4433H25.2934V0.763319H23.5486V15.6477C23.5486 15.7922 23.4686 15.9244 23.3419 15.989C23.2152 16.0536 23.0637 16.0397 22.9504 15.953L3.10908 0.763319H1.115Z" fill="black"/>
<path id="Vector_31" d="M52.8388 30.9128V33.4741H45.3611V56.3561H35.3905V33.4572L27.9126 33.4741V30.9128H52.8388Z" fill="white"/>
<path id="Vector_32" fill-rule="evenodd" clip-rule="evenodd" d="M27.6476 30.643C27.7177 30.5715 27.8128 30.5312 27.912 30.5312H52.8381C53.0449 30.5312 53.2123 30.7021 53.2123 30.9129V33.4742C53.2123 33.685 53.0449 33.8558 52.8381 33.8558H45.7342V56.3561C45.7342 56.5672 45.5668 56.7377 45.3605 56.7377H35.3899C35.1834 56.7377 35.0159 56.5672 35.0159 56.3561V33.8397L27.9128 33.8558C27.8135 33.8561 27.7182 33.8159 27.6479 33.7444C27.5776 33.6728 27.5381 33.5755 27.5381 33.4742V30.9129C27.5381 30.8116 27.5775 30.7146 27.6476 30.643ZM28.2859 31.2946V33.0917L35.389 33.0755C35.4883 33.0753 35.5836 33.1155 35.6539 33.187C35.7242 33.2586 35.7637 33.3559 35.7637 33.4572V55.9745H44.9864V33.4742C44.9864 33.2634 45.1538 33.0925 45.3605 33.0925H52.4644V31.2946H28.2859Z" fill="black"/>
<path id="Vector_33" d="M186.638 43.6346H176.668V53.8117H191.623V56.3561H166.697V30.9128H191.623V33.4572H176.668V41.0902H186.638V43.6346Z" fill="white"/>
<path id="Vector_34" fill-rule="evenodd" clip-rule="evenodd" d="M166.326 30.9129C166.326 30.7021 166.494 30.5312 166.7 30.5312H191.626C191.833 30.5312 192 30.7021 192 30.9129V33.4572C192 33.668 191.833 33.8389 191.626 33.8389H177.044V40.7087H186.641C186.848 40.7087 187.015 40.8796 187.015 41.0903V43.6347C187.015 43.8453 186.848 44.0162 186.641 44.0162H177.044V53.4301H191.626C191.833 53.4301 192 53.6011 192 53.8117V56.3561C192 56.5672 191.833 56.7377 191.626 56.7377H166.7C166.494 56.7377 166.326 56.5672 166.326 56.3561V30.9129ZM167.074 31.2946V55.9745H191.252V54.1933H176.67C176.464 54.1933 176.297 54.0228 176.297 53.8117V43.6347C176.297 43.4236 176.464 43.2531 176.67 43.2531H186.267V41.4719H176.67C176.464 41.4719 176.297 41.3009 176.297 41.0903V33.4572C176.297 33.2464 176.464 33.0756 176.67 33.0756H191.252V31.2946H167.074Z" fill="black"/>
<path id="Vector_35" d="M151.714 43.6346V41.0902H164.202V50.5888C164.202 51.358 163.985 52.0931 163.552 52.7941C163.153 53.4951 162.57 54.1058 161.804 54.6258C161.072 55.1463 160.189 55.5644 159.157 55.8814C158.124 56.198 156.976 56.3561 155.71 56.3561H147.718C146.519 56.3561 145.403 56.2092 144.371 55.9151C143.372 55.5985 142.49 55.18 141.723 54.6599C140.958 54.1399 140.358 53.5292 139.925 52.8278C139.492 52.1268 139.276 51.3805 139.276 50.5888V36.68C139.276 35.9563 139.492 35.2552 139.925 34.5767C140.358 33.8756 140.958 33.2537 141.723 32.7108C142.49 32.1681 143.388 31.7383 144.421 31.4217C145.453 31.0825 146.552 30.9128 147.718 30.9128H155.66C156.759 30.9128 157.825 31.0825 158.857 31.4217C159.89 31.7383 160.805 32.1681 161.604 32.7108C162.404 33.231 163.036 33.8417 163.503 34.5428C163.969 35.2213 164.202 36.0015 164.202 36.0015H159.217C159.217 35.0742 158.318 34.2205 158.318 34.2205C158.318 34.2205 157.667 33.4402 156.635 33.4402H146.754V53.8117H156.724V43.6346H151.714Z" fill="white"/>
<path id="Vector_36" fill-rule="evenodd" clip-rule="evenodd" d="M147.717 31.2946C146.588 31.2946 145.528 31.4589 144.535 31.7851L144.528 31.7873C143.528 32.0941 142.665 32.5078 141.936 33.0244C141.205 33.5423 140.644 34.1284 140.241 34.7802L140.238 34.785C139.84 35.4092 139.649 36.0389 139.649 36.68V50.5888C139.649 51.3051 139.844 51.9812 140.241 52.6244C140.642 53.2744 141.202 53.8478 141.93 54.3422C142.661 54.8385 143.509 55.2418 144.476 55.5492C145.471 55.8317 146.55 55.9745 147.717 55.9745H155.71C156.945 55.9745 158.057 55.82 159.049 55.5159C160.051 55.2085 160.896 54.8056 161.59 54.3129C161.592 54.3113 161.595 54.3097 161.597 54.3081C162.323 53.8153 162.862 53.2456 163.229 52.6023C163.231 52.5983 163.234 52.5943 163.236 52.5907C163.634 51.9455 163.828 51.2802 163.828 50.5888V41.4719H152.087V43.2531H156.724C156.93 43.2531 157.098 43.4236 157.098 43.6347V53.8117C157.098 54.0228 156.93 54.1933 156.724 54.1933H146.753C146.547 54.1933 146.379 54.0228 146.379 53.8117V33.4403C146.379 33.2295 146.547 33.0586 146.753 33.0586H156.634C157.244 33.0586 157.736 33.2893 158.068 33.5111C158.234 33.6225 158.364 33.7341 158.454 33.819C158.499 33.8616 158.534 33.8978 158.558 33.9244C158.57 33.937 158.58 33.9474 158.587 33.9555C158.595 33.9636 158.607 33.975 158.62 33.9895C158.649 34.0183 158.688 34.0595 158.734 34.1115C158.827 34.2151 158.95 34.3638 159.074 34.5451C159.26 34.8178 159.468 35.1941 159.552 35.6199H163.659C163.549 35.3637 163.394 35.0504 163.196 34.762L163.193 34.7572C162.759 34.1047 162.165 33.5289 161.403 33.0327L161.397 33.0286C160.632 32.5091 159.75 32.0944 158.749 31.7873L158.742 31.7851C157.747 31.4582 156.72 31.2946 155.66 31.2946H147.717ZM164.202 36.0015L164.559 35.8902C164.594 36.0059 164.573 36.1315 164.502 36.2287C164.431 36.3259 164.32 36.3832 164.202 36.3832H159.216C159.01 36.3832 158.842 36.2123 158.842 36.0015C158.842 35.6547 158.669 35.2884 158.46 34.9815C158.359 34.8334 158.257 34.7107 158.181 34.6253C158.143 34.5828 158.112 34.55 158.091 34.5286C158.081 34.5179 158.073 34.51 158.068 34.5051L158.063 34.5002C158.063 34.5002 158.063 34.5 158.317 34.2205C158.032 34.4679 158.033 34.4681 158.033 34.4681L158.031 34.4665C158.028 34.4633 158.023 34.4575 158.016 34.4496C158.001 34.4336 157.977 34.4088 157.945 34.3782C157.88 34.3168 157.783 34.2333 157.658 34.1497C157.406 33.9814 157.056 33.8219 156.634 33.8219H147.127V33.4403H146.753V33.8219H147.127V53.4301H146.753V53.8117H147.127V53.4301H156.35V53.8117H156.724V53.4301H156.35V44.0162H156.724V43.6347H156.35V44.0162H151.713C151.507 44.0162 151.34 43.8453 151.34 43.6347V41.0903C151.34 40.8796 151.507 40.7087 151.713 40.7087H164.202C164.408 40.7087 164.575 40.8796 164.575 41.0903V50.5888C164.575 51.4335 164.337 52.2364 163.872 52.992C163.873 52.99 163.874 52.988 163.875 52.9859L163.552 52.7941L163.869 52.9976C163.87 52.9956 163.871 52.994 163.872 52.992C163.44 53.7475 162.817 54.396 162.014 54.9417L162.017 54.9393L161.804 54.6259L162.011 54.9437L162.014 54.9417C161.244 55.4878 160.325 55.9211 159.264 56.2466C158.191 56.5756 157.006 56.7377 155.71 56.7377H147.717C146.488 56.7377 145.339 56.5872 144.27 56.2827C144.267 56.2819 144.263 56.2807 144.26 56.2799C143.231 55.9536 142.315 55.5207 141.516 54.9778C140.712 54.4317 140.073 53.784 139.608 53.0317C139.14 52.2725 138.901 51.4559 138.901 50.5888V36.68C138.901 35.8747 139.143 35.103 139.61 34.3708L139.608 34.3732L139.925 34.5767L139.611 34.3684L139.61 34.3708C140.073 33.6214 140.71 32.9645 141.51 32.3974C142.312 31.829 143.247 31.3836 144.309 31.0573L144.306 31.0585L144.421 31.4218L144.313 31.0563L144.309 31.0573C145.38 30.7058 146.517 30.5312 147.717 30.5312H155.66C156.796 30.5312 157.899 30.7065 158.968 31.0573C160.028 31.383 160.977 31.8267 161.808 32.3911C162.642 32.9342 163.312 33.5782 163.81 34.326C164.063 34.694 164.249 35.0837 164.371 35.3773C164.433 35.5254 164.479 35.6514 164.51 35.7413C164.526 35.7863 164.538 35.8223 164.546 35.8477C164.55 35.8604 164.553 35.8704 164.556 35.8776L164.558 35.8861L164.559 35.8902C164.559 35.8902 164.559 35.8902 164.202 36.0015ZM158.317 34.2205L158.033 34.4681L158.034 34.4693C158.043 34.48 158.053 34.4905 158.063 34.5002" fill="black"/>
<path id="Vector_37" d="M120.386 30.9128C120.386 30.9128 122.961 30.9128 128.11 30.9128C129.113 30.9128 130.133 31.0709 131.169 31.3872C132.206 31.7034 133.125 32.1325 133.927 32.6746C134.763 33.1941 135.449 33.8039 135.984 34.504C136.518 35.1816 136.786 35.8931 136.786 36.6384V56.3224C136.418 56.3224 135.816 56.3224 134.981 56.3224C134.178 56.3448 133.326 56.3561 132.423 56.3561C131.554 56.3561 130.734 56.3561 129.965 56.3561C129.196 56.3561 129.576 56.3448 129.308 56.3224V43.6346H119.338V56.3224H111.86V36.6384C111.86 35.8931 112.111 35.1703 112.612 34.4702C113.147 33.77 113.816 33.1602 114.618 32.6407C115.454 32.1212 116.374 31.7034 117.377 31.3872C118.413 31.0709 119.416 30.9128 120.386 30.9128ZM119.338 41.0902H129.308V33.4572H119.338V41.0902Z" fill="white"/>
<path id="Vector_38" fill-rule="evenodd" clip-rule="evenodd" d="M117.487 31.7524C116.513 32.0595 115.624 32.4641 114.818 32.9649C114.051 33.4615 113.417 34.0404 112.912 34.7002C112.452 35.3445 112.236 35.9885 112.236 36.6385V55.9408H118.965V43.6347C118.965 43.4236 119.133 43.2531 119.34 43.2531H129.31C129.516 43.2531 129.684 43.4236 129.684 43.6347V55.9737C129.753 55.9741 129.845 55.9745 129.967 55.9745H132.424C133.324 55.9745 134.173 55.9633 134.972 55.9408C134.974 55.9408 134.976 55.9408 134.978 55.9408C134.979 55.9408 134.981 55.9408 134.982 55.9408H136.414V36.6385C136.414 35.9944 136.185 35.3652 135.694 34.7436L135.69 34.7388C135.187 34.0793 134.537 33.4991 133.735 33.0006C133.731 32.9981 133.727 32.9955 133.723 32.9929C132.954 32.4739 132.069 32.0597 131.063 31.7529C130.059 31.4464 129.075 31.2946 128.111 31.2946H120.388C120.388 31.2946 120.388 31.2946 120.388 30.9129C120.388 30.5312 120.388 30.5312 120.388 30.5312H128.111C129.153 30.5312 130.209 30.6956 131.278 31.0215C132.342 31.3464 133.294 31.7891 134.129 32.3524C134.995 32.8915 135.714 33.5289 136.278 34.267C136.856 34.9998 137.162 35.7928 137.162 36.6385V56.3224C137.162 56.5331 136.994 56.704 136.788 56.704H134.987C134.183 56.7265 133.328 56.7377 132.424 56.7377H129.967C129.774 56.7377 129.651 56.7373 129.571 56.7357C129.499 56.7345 129.439 56.7325 129.392 56.7245C129.365 56.7204 129.341 56.714 129.318 56.7064C129.31 56.7056 129.297 56.7044 129.279 56.7028C129.085 56.6863 128.936 56.521 128.936 56.3224V44.0162H119.713V56.3224C119.713 56.5331 119.546 56.704 119.34 56.704H111.862C111.655 56.704 111.488 56.5331 111.488 56.3224V36.6385C111.488 35.7994 111.772 34.9994 112.312 34.245C112.314 34.2418 112.317 34.2386 112.319 34.2355C112.882 33.4978 113.584 32.8592 114.42 32.3184L114.426 32.3148C115.289 31.7777 116.238 31.3474 117.268 31.0225L117.271 31.0215C118.338 30.6959 119.378 30.5312 120.388 30.5312V30.9129V31.2946C119.459 31.2946 118.492 31.4459 117.487 31.7524ZM118.965 33.4572C118.965 33.2464 119.133 33.0756 119.34 33.0756H129.31C129.516 33.0756 129.684 33.2464 129.684 33.4572V41.0903C129.684 41.3009 129.516 41.4719 129.31 41.4719H119.34C119.133 41.4719 118.965 41.3009 118.965 41.0903V33.4572ZM119.713 33.8389V40.7087H128.936V33.8389H119.713Z" fill="black"/>
<path id="Vector_39" d="M91.9185 41.0902H101.889V33.4572H91.9185V41.0902ZM84.4404 56.3561V30.9128H101.889C103.154 30.9128 103.473 31.0485 104.472 31.32C105.504 31.5913 106.386 31.9758 107.119 32.4734C107.851 32.9709 108.401 33.5702 108.767 34.2714C109.167 34.9725 109.367 35.7414 109.367 36.5782V39.0208C109.367 39.9933 109.134 40.7849 108.668 41.3956C108.201 41.9834 107.685 42.4473 107.119 42.7864C106.586 43.1029 106.087 43.318 105.62 43.4308C105.154 43.5439 104.921 43.6005 104.921 43.6005C104.921 43.6005 105.154 43.6796 105.62 43.838C106.087 43.9737 106.586 44.2337 107.119 44.6185C107.685 44.98 108.201 45.4776 108.668 46.1112C109.134 46.7215 109.367 47.5132 109.367 48.4858V56.3561H101.889V43.9737H91.9185V56.3561H84.4404Z" fill="white"/>
<path id="Vector_40" fill-rule="evenodd" clip-rule="evenodd" d="M84.0659 30.9129C84.0659 30.7021 84.2333 30.5312 84.4396 30.5312H101.888C102.535 30.5312 102.954 30.5659 103.347 30.6393C103.64 30.6942 103.918 30.7714 104.25 30.8639C104.35 30.8915 104.454 30.9205 104.565 30.9508C105.629 31.2306 106.552 31.6303 107.325 32.1557C108.101 32.6821 108.694 33.3246 109.093 34.0856C109.525 34.8452 109.74 35.6787 109.74 36.5783V39.0208C109.74 40.0562 109.491 40.937 108.961 41.63L108.958 41.6356C108.467 42.2547 107.917 42.7503 107.308 43.1154L107.306 43.1162C106.93 43.3397 106.564 43.5183 106.209 43.6487C106.572 43.8072 106.945 44.0263 107.325 44.3007C107.932 44.69 108.477 45.2188 108.964 45.8793C109.491 46.5719 109.74 47.4518 109.74 48.4858V56.3561C109.74 56.5672 109.573 56.7377 109.366 56.7377H101.888C101.682 56.7377 101.514 56.5672 101.514 56.3561V44.3553H92.2914V56.3561C92.2914 56.5672 92.124 56.7377 91.9177 56.7377H84.4396C84.2333 56.7377 84.0659 56.5672 84.0659 56.3561V30.9129ZM104.834 43.2294L105.533 43.0596C105.955 42.9573 106.42 42.7595 106.929 42.457C107.451 42.1444 107.933 41.7134 108.374 41.1581C108.776 40.6304 108.992 39.929 108.992 39.0208V36.5783C108.992 35.8067 108.809 35.1043 108.443 34.4633C108.441 34.4601 108.44 34.4568 108.438 34.4535L108.437 34.451C108.103 33.8125 107.599 33.2584 106.911 32.7912C106.22 32.3217 105.378 31.9525 104.377 31.6896L104.375 31.6888C104.249 31.6548 104.136 31.6234 104.032 31.5945C103.709 31.5047 103.472 31.4387 103.212 31.3901C102.879 31.3277 102.507 31.2946 101.888 31.2946H84.8138V55.9745H91.544V43.9737C91.544 43.7631 91.7113 43.5921 91.9177 43.5921H101.888C102.095 43.5921 102.262 43.7631 102.262 43.9737V55.9745H108.992V48.4858C108.992 47.5762 108.775 46.8736 108.372 46.3455L108.368 46.3403C107.925 45.7384 107.441 45.275 106.92 44.9419C106.914 44.9379 106.908 44.9339 106.902 44.9299C106.393 44.5624 105.932 44.3256 105.517 44.2052C105.512 44.2036 105.507 44.202 105.502 44.2004L104.802 43.9629C104.644 43.9091 104.539 43.7542 104.547 43.5837C104.554 43.4136 104.671 43.2687 104.834 43.2294ZM91.544 33.4572C91.544 33.2464 91.7113 33.0756 91.9177 33.0756H101.888C102.095 33.0756 102.262 33.2464 102.262 33.4572V41.0903C102.262 41.3009 102.095 41.4719 101.888 41.4719H91.9177C91.7113 41.4719 91.544 41.3009 91.544 41.0903V33.4572ZM92.2914 33.8389V40.7087H101.514V33.8389H92.2914Z" fill="black"/>
<path id="Vector_41" d="M0.741699 38.6815C0.741699 38.6815 0.741699 38.0031 0.741699 36.6461C0.741699 35.8319 1.00197 35.0856 1.52252 34.4071C2.08311 33.706 2.82389 33.0953 3.74486 32.5751C4.70585 32.055 5.80703 31.6479 7.04835 31.3539C8.3297 31.0599 9.69113 30.9128 11.1326 30.9128H15.3971C16.7986 30.9128 18.12 31.0712 19.3613 31.3878C20.6026 31.6818 21.6837 32.0889 22.6047 32.6091C23.7124 33.1826 25.6679 34.5472 25.6679 36.0015H20.6827C20.6827 35.0969 20.2022 34.718 19.1211 34.2205C18.08 33.7003 16.5984 33.4402 14.6764 33.4402H10.7122V37.6977C10.7122 38.037 11.0726 38.4441 11.7933 38.919C12.5541 39.3939 13.4751 39.9254 14.5562 40.5136C15.6774 41.079 16.8787 41.6893 18.16 42.3454C19.4414 43.0014 20.6226 43.6796 21.7038 44.3809C22.8249 45.0595 23.7459 45.7605 24.4667 46.4843C25.2275 47.1853 25.6079 47.8751 25.6079 48.5536V50.6229C25.6079 51.3917 25.3476 52.1268 24.8271 52.8278C24.3465 53.5063 23.6458 54.117 22.7248 54.6599C21.8439 55.18 20.7628 55.5985 19.4814 55.9151C18.2401 56.2092 16.8587 56.3561 15.3371 56.3561H11.1326C9.69113 56.3561 8.3297 56.2092 7.04835 55.9151C5.80703 55.5985 4.70585 55.18 3.74486 54.6599C2.82389 54.1399 2.08311 53.5404 1.52252 52.8619C1.00197 52.1609 0.741699 51.2673 0.741699 51.2673H5.72695C5.72695 52.1268 6.2675 52.455 7.22853 52.9975C8.22959 53.5404 9.53094 53.8117 11.1326 53.8117H15.6974V49.4015C15.6974 48.9946 15.317 48.5307 14.5562 48.0107C13.8355 47.4678 12.9145 46.9024 11.7933 46.3146C10.7122 45.7264 9.51091 45.1161 8.18956 44.4825C6.9082 43.8268 5.70692 43.1708 4.58574 42.5151C3.50461 41.859 2.58364 41.2146 1.82284 40.5814C1.10208 39.9254 0.741699 39.2922 0.741699 38.6815Z" fill="white"/>
<path id="Vector_42" fill-rule="evenodd" clip-rule="evenodd" d="M7.13099 31.726C5.91782 32.0135 4.84937 32.4094 3.92237 32.9108C3.03814 33.4106 2.33856 33.9903 1.81399 34.6454C1.34329 35.2601 1.115 35.9236 1.115 36.6461V38.6814L0.741092 38.6816H0.367188V36.6461C0.367188 35.7414 0.658692 34.9132 1.22754 34.1718C1.22909 34.1698 1.23065 34.1678 1.23224 34.1658C1.82801 33.4207 2.60823 32.7806 3.56323 32.2412L3.56908 32.238C4.56311 31.6999 5.69561 31.2824 6.96321 30.9821L6.96572 30.9815C8.27645 30.6808 9.66555 30.5312 11.132 30.5312H15.3965C16.8245 30.5312 18.1756 30.6924 19.4482 31.0168C20.7126 31.3165 21.8245 31.7335 22.7792 32.2719C23.3542 32.5702 24.1482 33.0723 24.8055 33.6954C25.4501 34.3064 26.0412 35.1074 26.0412 36.0015C26.0412 36.2123 25.8738 36.3832 25.6673 36.3832H20.6821C20.4756 36.3832 20.3082 36.2123 20.3082 36.0015C20.3082 35.6318 20.2153 35.4113 20.0377 35.2234C19.837 35.0112 19.5067 34.817 18.9667 34.5685C18.9632 34.5668 18.9596 34.5651 18.956 34.5633C17.9892 34.0802 16.5737 33.8219 14.6758 33.8219H11.0855V37.6978C11.0855 37.7294 11.105 37.8273 11.2593 38.0016C11.4079 38.1695 11.6466 38.3682 11.9917 38.5959C12.7425 39.0644 13.6536 39.5903 14.7264 40.1738C15.8469 40.7388 17.0471 41.3491 18.327 42.0043C19.6164 42.6644 20.8072 43.3478 21.8988 44.0556C23.0338 44.7429 23.9771 45.4592 24.7226 46.2063C25.516 46.9394 25.9812 47.7223 25.9812 48.5537V50.6229C25.9812 51.4856 25.6877 52.2986 25.127 53.055C24.608 53.7865 23.8633 54.4293 22.9112 54.9906C21.9917 55.5335 20.8752 55.9633 19.5688 56.2863L19.5653 56.2871C18.2916 56.5888 16.8812 56.7377 15.3365 56.7377H11.132C9.66555 56.7377 8.27645 56.5884 6.96572 56.2875C6.96282 56.2867 6.95995 56.2863 6.95709 56.2855C5.6914 55.9625 4.56104 55.5339 3.56908 54.997L3.56323 54.9938C2.61052 54.4557 1.83154 53.8286 1.23609 53.1079C1.2319 53.1031 1.22784 53.0979 1.22392 53.0927C0.938126 52.7075 0.728902 52.2777 0.59245 51.9519C0.523595 51.7874 0.471838 51.6457 0.437053 51.5442C0.419637 51.4937 0.406411 51.4527 0.397367 51.4243C0.392843 51.4098 0.38936 51.3986 0.386917 51.3905L0.38403 51.3809L0.383171 51.3781L0.382887 51.3769C0.382887 51.3769 0.3827 51.3765 0.741092 51.2674L0.382887 51.3769C0.34924 51.2613 0.370806 51.1357 0.441378 51.0394C0.511951 50.9427 0.623056 50.8858 0.741092 50.8858H5.72635C5.93285 50.8858 6.10023 51.0567 6.10023 51.2674C6.10023 51.5948 6.19501 51.7938 6.37945 51.9796C6.59036 52.1923 6.91455 52.3845 7.40671 52.6625C8.33569 53.1653 9.56966 53.4301 11.132 53.4301H15.3229V49.4015C15.3229 49.3225 15.2852 49.1893 15.1249 48.9938C14.9662 48.8004 14.7127 48.5777 14.3476 48.3278C14.3428 48.3245 14.3382 48.3213 14.3336 48.3177C13.6341 47.7913 12.7318 47.2363 11.6218 46.6541L11.6169 46.6513C10.5423 46.0671 9.34674 45.4592 8.03004 44.828C8.02709 44.8268 8.02419 44.8252 8.02133 44.824C6.73445 44.1651 5.527 43.5058 4.39923 42.8462L4.3941 42.843C3.30128 42.1801 2.36434 41.5248 1.58594 40.8772C1.58169 40.8736 1.57751 40.87 1.57342 40.8664C0.820781 40.1814 0.367188 39.4526 0.367188 38.6816H0.741092L1.115 38.6814C1.115 39.1303 1.38059 39.6664 2.06497 40.291C2.80635 40.9073 3.70836 41.5389 4.77363 42.1853C5.88617 42.8362 7.07899 43.4874 8.35223 44.1394C9.67557 44.7734 10.8803 45.3857 11.9661 45.9764C13.094 46.5682 14.0305 47.1416 14.7708 47.6986C15.1631 47.9674 15.4778 48.2351 15.6982 48.5035C15.9183 48.7719 16.0707 49.0741 16.0707 49.4015V53.8117C16.0707 54.0228 15.9033 54.1933 15.6968 54.1933H11.132C9.49292 54.1933 8.12526 53.9165 7.05251 53.3346L7.0469 53.3314C6.57931 53.0674 6.15335 52.8246 5.85405 52.5229C5.61113 52.2781 5.45178 51.9968 5.3863 51.6494H1.27901L1.28014 51.6518C1.40294 51.9455 1.58217 52.309 1.81411 52.6236C2.33857 53.256 3.0381 53.8246 3.92238 54.3245C4.85064 54.8265 5.92021 55.2338 7.13405 55.544C8.38476 55.8305 9.71708 55.9745 11.132 55.9745H15.3365C16.8342 55.9745 18.1861 55.8297 19.3946 55.544C20.65 55.2334 21.695 54.8269 22.537 54.3298C23.4253 53.8061 24.0815 53.2283 24.5234 52.6043C24.525 52.6019 24.5268 52.5999 24.5284 52.5975C25.0072 51.9527 25.2333 51.2971 25.2333 50.6229V48.5537C25.2333 48.03 24.94 47.4354 24.2155 46.7677C24.2116 46.7637 24.2077 46.76 24.2038 46.7564C23.5098 46.0594 22.6147 45.3761 21.5125 44.7092L21.5101 44.7076C21.5076 44.706 21.5051 44.7048 21.5027 44.7032C20.4333 44.0094 19.2632 43.3373 17.9918 42.6865C16.711 42.0308 15.5104 41.4205 14.39 40.8555C14.3866 40.8539 14.3832 40.8523 14.3798 40.8503C13.2944 40.2601 12.3666 39.7246 11.5976 39.2447C11.5962 39.2437 11.5946 39.2428 11.5932 39.2418L11.5899 39.2397C11.2163 38.9935 10.9157 38.752 10.7044 38.5134C10.4984 38.2806 10.3377 38.0054 10.3377 37.6978V33.4403C10.3377 33.2295 10.5051 33.0586 10.7116 33.0586H14.6758C16.6187 33.0586 18.1645 33.3196 19.2794 33.875C19.8182 34.1232 20.2669 34.3667 20.5757 34.6933C20.8251 34.9571 20.9704 35.2597 21.0276 35.6199H25.2374C25.1096 35.1711 24.7705 34.7038 24.2967 34.2547C23.7016 33.6907 22.9673 33.2251 22.4349 32.9495C22.431 32.9474 22.427 32.9453 22.423 32.943C21.538 32.4432 20.4906 32.0472 19.2762 31.7596L19.2701 31.7581C18.0611 31.4497 16.7703 31.2946 15.3965 31.2946H11.132C9.71593 31.2946 8.38261 31.4389 7.13099 31.726Z" fill="black"/>
<path id="Vector_43" d="M74.7725 20.7358H79.7577V25.8245H74.7725V20.7358Z" fill="white"/>
<path id="Vector_44" fill-rule="evenodd" clip-rule="evenodd" d="M74.3979 20.7357C74.3979 20.5249 74.5653 20.354 74.7717 20.354H79.7569C79.9637 20.354 80.131 20.5249 80.131 20.7357V25.8243C80.131 26.0351 79.9637 26.206 79.7569 26.206H74.7717C74.5653 26.206 74.3979 26.0351 74.3979 25.8243V20.7357ZM75.1458 21.1173V25.4427H79.3832V21.1173H75.1458Z" fill="black"/>
<path id="Vector_45" d="M67.6624 59.7885C66.5667 60.0866 65.4821 60.2299 64.4086 60.2186C63.3614 60.1769 62.3853 60.0112 61.4797 59.7211C60.601 59.4001 59.8496 58.9748 59.2262 58.4447C58.5972 57.893 58.1849 57.2473 57.9897 56.5074L54.4397 43.0617C54.2557 42.3655 54.2871 41.634 54.5336 40.8676C54.8067 40.0705 55.2476 39.321 55.8567 38.619C56.4598 37.8953 57.2208 37.2454 58.1392 36.6691C59.0521 36.0712 60.0722 35.6188 61.1998 35.3122L68.8846 33.2224C70.0125 32.9157 71.119 32.7897 72.2039 32.8445C73.283 32.8774 74.2622 33.0542 75.1413 33.3749C76.0143 33.6737 76.7495 34.1035 77.3466 34.664C77.97 35.1941 78.3736 35.8072 78.5573 36.5034L82.1072 49.9493C82.3024 50.6888 82.2639 51.4572 81.9907 52.2545C81.712 53.0297 81.2548 53.7837 80.6195 54.5164C80.0104 55.2182 79.2467 55.8574 78.3282 56.4336C77.4365 56.9793 76.4425 57.401 75.3472 57.6988L67.6624 59.7885Z" fill="#F5C32C"/>
<path id="Vector_46" fill-rule="evenodd" clip-rule="evenodd" d="M72.1869 33.2145C71.1424 33.1618 70.0741 33.2828 68.9804 33.5802L61.2956 35.67C60.2019 35.9674 59.2171 36.4048 58.3384 36.9803L58.3325 36.9843C57.4415 37.5431 56.7115 38.1685 56.1366 38.8582L56.1319 38.8638C55.5518 39.5327 55.1367 40.24 54.8811 40.9859C54.6545 41.6913 54.6302 42.3482 54.7936 42.9657L58.3436 56.4114C58.5177 57.0715 58.8855 57.6545 59.4644 58.1625C60.048 58.6589 60.7573 59.0621 61.5978 59.3695C62.4661 59.6472 63.4056 59.8073 64.419 59.8482C65.4559 59.8586 66.5055 59.7198 67.569 59.4305L75.2538 57.3408C76.3185 57.0514 77.2795 56.643 78.139 56.1173C79.0312 55.5572 79.7655 54.9412 80.3468 54.2711C80.9567 53.5681 81.3872 52.8543 81.648 52.13C81.8989 51.3965 81.9303 50.7052 81.7558 50.0451L78.2058 36.5992C78.0444 35.9869 77.6878 35.4365 77.1133 34.948C77.1085 34.9441 77.1041 34.9401 77.0997 34.9359C76.5451 34.4153 75.8565 34.0103 75.0256 33.7259L75.0188 33.7235C74.1811 33.418 73.2409 33.2467 72.194 33.2147L72.1869 33.2145ZM72.2195 32.4741C71.0951 32.4178 69.9517 32.5488 68.7916 32.8644L61.1068 34.9541C59.9462 35.2697 58.8915 35.7364 57.9452 36.3558C57.0018 36.9482 56.2122 37.6211 55.5816 38.3768C54.9459 39.1101 54.4799 39.8998 54.1901 40.746L54.1877 40.7524C53.9221 41.579 53.884 42.3839 54.0883 43.1575L57.6383 56.6032C57.8542 57.4222 58.3102 58.13 58.9889 58.7251L58.9932 58.7287C59.654 59.2909 60.444 59.7363 61.3576 60.0697C61.362 60.0713 61.3668 60.0725 61.3711 60.0741C62.3106 60.3751 63.3193 60.546 64.3955 60.5889H64.4059C65.5147 60.6006 66.6323 60.4525 67.7579 60.1463L75.4426 58.0566C76.5686 57.7504 77.5943 57.3159 78.5179 56.7505L78.5215 56.7485C79.4653 56.1562 80.2581 55.4946 80.8946 54.7611C81.5546 54.0003 82.0381 53.207 82.3351 52.3812L82.3366 52.376C82.6313 51.5161 82.6774 50.6719 82.4611 49.8533L78.9111 36.4074C78.706 35.63 78.2575 34.9561 77.5892 34.3858C76.9515 33.7891 76.1734 33.3371 75.2625 33.0249C74.3441 32.6903 73.3287 32.5083 72.2195 32.4741Z" fill="black"/>
<path id="Vector_47" fill-rule="evenodd" clip-rule="evenodd" d="M63.7588 57.77C64.8323 57.7813 65.9169 57.6376 67.0122 57.3399L74.697 55.2501C75.7927 54.9524 76.7863 54.5303 77.6784 53.9846C78.5968 53.4084 79.3606 52.7696 79.9693 52.0674C80.605 51.3351 81.0618 50.5811 81.3409 49.8059C81.6136 49.0086 81.6526 48.2402 81.4574 47.5003L77.9074 34.0547C77.7233 33.3585 77.3198 32.7453 76.6964 32.2153C76.0996 31.6548 75.3645 31.225 74.491 30.9262C73.6124 30.6055 72.6331 30.4287 71.5537 30.3957C70.4687 30.341 69.3623 30.467 68.2347 30.7737L60.5499 32.8634C59.422 33.1701 58.4018 33.6224 57.4894 34.2204C56.5706 34.7966 55.81 35.4466 55.2069 36.1703C54.5978 36.8722 54.1569 37.6218 53.8837 38.4189C53.6372 39.1855 53.6058 39.9169 53.7895 40.6131L57.3395 54.0588C57.5347 54.7987 57.947 55.4444 58.5764 55.9961C59.1998 56.5261 59.9508 56.9515 60.8298 57.2721C61.7351 57.5622 62.7116 57.7283 63.7588 57.77Z" fill="white"/>
<path id="Vector_48" fill-rule="evenodd" clip-rule="evenodd" d="M71.5359 30.766C70.4914 30.7133 69.4231 30.8343 68.3294 31.1317L60.6446 33.2215C59.5505 33.5189 58.5657 33.9563 57.6874 34.5318L57.6815 34.5358C56.7905 35.0947 56.0605 35.72 55.4856 36.4097L55.4809 36.4153C54.9004 37.0842 54.4857 37.7915 54.2297 38.5374C54.0035 39.2428 53.9792 39.8995 54.1422 40.5174L57.6922 53.9631C57.8663 54.6231 58.2345 55.2062 58.813 55.7142C59.397 56.2101 60.1063 56.6138 60.9468 56.9211C61.8147 57.1984 62.7546 57.3589 63.7676 57.3998C64.8045 57.4099 65.8541 57.2714 66.9176 56.9821L74.6024 54.8924C75.6671 54.6027 76.6285 54.1942 77.488 53.6686C78.3802 53.1088 79.1141 52.4925 79.6954 51.8228C80.3053 51.1198 80.7362 50.4055 80.9966 49.6817C81.2475 48.9482 81.2789 48.2564 81.1048 47.5963L77.5548 34.1507C77.393 33.5384 77.0368 32.988 76.4619 32.4995C76.4575 32.4956 76.4531 32.4916 76.4487 32.4874C75.8941 31.9668 75.2055 31.5618 74.3746 31.2774L74.3678 31.275C73.5301 30.9695 72.5899 30.7982 71.543 30.7663L71.5359 30.766ZM71.5685 30.0257C70.4437 29.9693 69.3007 30.1003 68.1402 30.4159L60.4554 32.5057C59.2948 32.8212 58.2405 33.2879 57.2942 33.9073C56.3508 34.4997 55.5608 35.1726 54.9302 35.9283C54.2949 36.6616 53.8285 37.4513 53.5387 38.2974L53.5367 38.3041C53.2707 39.1306 53.2326 39.9356 53.4369 40.7092L56.9869 54.1549C57.2032 54.9734 57.6592 55.6817 58.3375 56.2767L58.3418 56.2803C59.0026 56.8421 59.793 57.2879 60.7062 57.6209C60.711 57.6225 60.7154 57.6241 60.7201 57.6257C61.6592 57.9267 62.6683 58.0976 63.7441 58.1402L63.7549 58.1406C64.8633 58.1522 65.9809 58.0041 67.1069 57.698L74.7916 55.6082C75.9172 55.3021 76.9429 54.8675 77.8669 54.3021L77.8705 54.3001C78.8143 53.7079 79.6071 53.0462 80.2436 52.3123C80.9036 51.5515 81.3871 50.7586 81.6837 49.9329L81.6857 49.9276C81.9803 49.0677 82.0264 48.2235 81.8101 47.4045L78.2601 33.9589C78.055 33.1815 77.6065 32.5076 76.9378 31.9373C76.3005 31.3407 75.5224 30.8886 74.6115 30.5764C73.6931 30.2419 72.6777 30.0598 71.5685 30.0257Z" fill="black"/>
<path id="Vector_49" d="M63.1228 41.1054C63.5005 42.5358 64.3947 43.3624 64.9604 43.2087C65.5258 43.0551 65.8935 41.8854 65.5158 40.4549C65.1381 39.0243 64.2436 38.1977 63.6778 38.3515C63.1125 38.5053 62.7451 39.6751 63.1228 41.1054Z" fill="black"/>
<path id="Vector_50" d="M67.9084 39.8042C68.2861 41.2348 69.1807 42.0614 69.7461 41.9077C70.3118 41.7536 70.6792 40.5839 70.3015 39.1535C69.9238 37.723 69.0292 36.8965 68.4635 37.0503C67.8981 37.204 67.5307 38.3738 67.9084 39.8042Z" fill="black"/>
<path id="Vector_51" d="M72.5082 43.8506C73.161 46.3224 71.6764 48.8812 69.1999 49.5545C66.7234 50.2278 64.1773 48.7652 63.5245 46.2935L63.5022 46.2084L63.208 46.2883L63.2303 46.3733C63.9252 49.0052 66.6375 50.5616 69.2762 49.8442C71.9154 49.1267 73.4973 46.4022 72.8024 43.7704L72.7801 43.6853L72.4859 43.7656L72.5082 43.8506Z" fill="black"/>
<path id="Vector_52" fill-rule="evenodd" clip-rule="evenodd" d="M63.6557 45.9362L63.7348 46.2359C64.3554 48.5857 66.7791 49.9821 69.1423 49.3396C71.5051 48.6968 72.9161 46.2576 72.2955 43.9078L72.2164 43.6081L72.934 43.4131L73.0131 43.7128C73.7403 46.4667 72.0844 49.3104 69.3319 50.0587C66.5799 50.807 63.7448 49.1848 63.0176 46.4309L62.9385 46.1312L63.6557 45.9362ZM72.8338 43.9006C73.4437 46.4915 71.8709 49.1382 69.2751 49.844C66.6797 50.5498 64.0135 49.056 63.2653 46.5028C63.2526 46.4598 63.2406 46.4169 63.2291 46.3732L63.2068 46.2881L63.501 46.2082L63.5233 46.2933C64.1761 48.765 66.7222 50.2276 69.1987 49.5543C71.6753 48.881 73.1598 46.3222 72.507 43.8505L72.4847 43.7654L72.7789 43.6851L72.8012 43.7702L72.802 43.7722C72.8131 43.8147 72.8239 43.8577 72.8338 43.9006Z" fill="black"/>
</g>
<defs>
<clipPath id="clip0_3690_3696">
<rect width="191.633" height="60.5898" fill="white" transform="translate(0.367188)"/>
</clipPath>
</defs>
</svg>
